<svg width="68" height="64" fill="none" xmlns="http://www.w3.org/2000/svg"><path d="M67.16 22.829c-1.29-3.51-5.334-2.84-8.462-2.948-4.728-.166-9.492.324-14.206.08-1.124-3.972-2.075-7.994-3.157-11.98-.922-3.408-2.544-7.264-6.493-7.899-3.215-.519-5.031 1.478-6.098 4.253-2.003 5.203-3.157 10.609-5.405 15.748-5.276-.015-10.631-.101-15.886.194-2.443.137-5.643.34-6.66 2.956-1.16 2.969.714 5.275 2.913 6.94 1.83 1.384 3.776 2.624 5.643 3.964 2.126 1.528 5.117 3.121 6.746 5.11 1.607 1.96-.865 6.112-1.657 8.31-.851 2.357-1.867 4.721-2.43 7.172-.634 2.76-.864 6.948 1.918 8.757 2.796 1.816 6.494-1.644 8.634-3.179 3.95-2.825 7.604-6.032 11.698-8.663 3.618 3.496 7.445 6.79 11.546 9.708 2.4 1.709 5.91 3.763 8.807 1.853 2.66-1.752 2.538-5.312 1.665-7.986-1.6-4.93-3.2-9.845-4.742-14.804 4.058-2.92 8.072-5.953 12.022-9.017 2.746-2.133 4.937-4.93 3.603-8.57Zm-9.038 9.888c-2.797 2.127-5.543 4.31-8.404 6.357-.382.274-.649.736-.498 1.218 1.031 3.316 1.773 6.71 2.869 10.004.872 2.624 3.452 6.523 2.357 9.32-2.631 6.76-16.628-7.49-19.302-10.105-.338-.332-.9-.426-1.311-.166-2.595 1.607-5.024 3.43-7.424 5.312-2.587 2.025-5.73 5.218-8.887 6.35-1.261.454-2.573.317-3.517-1.103-.41-.613-.274-2.026-.23-2.76.1-1.687.734-3.381 1.282-4.967 1.413-4.072 2.934-8.108 4.397-12.158.115-.325-.007-.83-.281-1.053-2.408-1.96-4.85-3.87-7.359-5.708-2.393-1.752-7.633-4.116-8.642-6.955-1.737-4.908 6.321-3.878 9.146-3.914 3.885-.05 7.763-.151 11.648-.151.389.086.8-.05 1.016-.534a83.11 83.11 0 0 0 3.503-9.095c.951-2.97 1.989-11.294 6.378-10.163 4.18 1.081 4.642 7.323 5.593 10.819.728 2.666 1.391 5.355 2.162 8.007.145.483.555.757 1.045.793 2.718.202 5.435-.022 8.16-.072 3.142-.058 7.307-.634 10.349.223 8.404 2.379-1.917 8.88-4.05 10.501Z" fill="#243037"/><path d="M19.93 25.575a18.816 18.816 0 0 0-4.837 3.423c-.75.728.397 1.874 1.146 1.146a17.296 17.296 0 0 1 4.512-3.17c.937-.462.115-1.86-.822-1.4Zm5.708 1.074c-2.465.994-4.8 2.22-6.999 3.719-.857.584-.05 1.989.822 1.398a35.017 35.017 0 0 1 6.616-3.553c.945-.39.526-1.954-.44-1.564Z" fill="#FABF2B"/></svg>