<svg width="371" height="258" fill="none" xmlns="http://www.w3.org/2000/svg"><path d="M260.377 53.381c.181.036 14.384-9.678 14.891-10.4 4.131-5.563-19.057 9.967-14.891 10.4Zm61.449 49.947c-.507 1.048-56.521 8.018-48.659 3.72.471-.252 1.087-.18 1.667-.252 0-.037 37.246-3.756 37.282-3.756 6.159-.687 11.377-3.179 9.71.288ZM339 100.764c-7.464-1.3 32.21-6.573 31.413-5.02-.036.145-.942 1.662-1.087 1.662-5.435-.181-30.326 3.358-30.326 3.358Zm-51.268-48.286c-3.696.47-3.659 10.221 3.225 9.535 4.927-.614 7.5-10.835-3.225-9.535Zm14.746-28.314c-34.239 22.68 34.203-17.154 28.841-18.166-1.848-.36-20.073 12.388-28.841 18.166Zm-12.101 177c3.152 8.307 10.507-1.48 5.58-6.031-1.124-1.047-7.826.072-5.58 6.031Zm77.391-22.102c2.536-2.059-75.724-14.302-66.775-8.812-3.007-1.842 64.891 10.365 66.775 8.812Zm-30.362-46.3c6.558-5.995-5.508-14.518-5.145-2.456.072 3.251 3.297 4.154 5.145 2.456Zm-66.848 31.709c.399-.361.797-.866 1.305-.794 1.195.18 11.666 1.517 12.753 2.167 1.015.614-.217 2.022-1.123 1.914-8.152-.831-14.783-1.625-12.935-3.287Z" fill="#070A0B"/><path fill-rule="evenodd" clip-rule="evenodd" d="M109.653 251.834c9.384-6.393 13.696-21.994 2.718-19.539-6.144 1.394-8.467-5.556-9.22-7.809a10.13 10.13 0 0 0-.2-.569 521.585 521.585 0 0 0-2.992-7.036l-.325-.75c-1.138-2.625-1.848-4.265-2.435-5.949-.977-2.807-1.608-5.733-3.29-13.538l-.958-4.436c-.093-.465 6.984-5.819 9.274-7.538l.648-.485.005-.004.036-.027c3.246-2.622 2.937-4.729 2.721-6.208-.102-.7-.184-1.259.142-1.665 1.811-2.239 1.014-4.478.072-6.754a136.504 136.504 0 0 0-1.384-3.215c-1.002-2.269-1.49-3.373-1.13-3.962.341-.558 1.444-.654 3.592-.839 1.929-.167 4.702-.407 8.524-1.121a39.179 39.179 0 0 0 4.485-1.087c3.319-.985 3.878-1.151 26.384.871 68.609 6.151 86.578 21.639 95.093 28.977 2.182 1.881 3.744 3.227 5.377 3.743 26.015 8.126 19.892-60.673 16.631-87.76-8.841-73.602-15.254-78.839-35.29-74.216l-.103.024c-1.669.388-3.351.78-3.955 3.01-7.138 25.858-66.594 45.18-92.825 51.102-.136.03-1.609.132-4.115.306-18.974 1.317-97.166 6.746-102.479 15.838-1.327 2.301-4.661 2.966-8.185 3.668-3.499.698-7.185 1.433-9.279 3.844-14.855 17.154-4.13 56.917 9.058 54.931 10.335-1.578 10.832-.427 11.524 1.175.891 2.065 2.106 4.878 25.143 3.556 1.404-.075 6.858 12.051 13.952 27.82 6.638 14.758 14.712 32.705 22.243 46.83 9.468 17.747 10.74 16.691 16.241 12.123 1.193-.99 2.585-2.146 4.302-3.311Zm-7.173-21.164c-1.305-2.419-2.355-4.948-3.37-7.512-12.417-31.361-8.895-33.565-4.208-36.497.36-.225.726-.454 1.092-.701 7.754-5.237 7.754-5.562 7.355-7.187-.206-1.064-3.36-.007-4.605.41l-.177.059c-4.24 1.409-6.123 1.373-9.348-2.997-5.294-7.147-4.753-9.8-5.674-10.478-.788-.579-2.644.283-10.123 1.016-5.374.521-9.181.711-11.811.842-4.48.223-5.543.276-5.11 1.505 3.298 9.209 27.827 61.865 40.616 83.787 1.776 3.034 5.544 1.445 8.479-.325.56-.349.994-.91 1.423-1.465.459-.593.913-1.179 1.511-1.496 3.442-1.842 10.689-10.004 7.681-13.182-.885-.951-2.507-1.038-4.389-1.141-3.126-.169-6.968-.377-9.342-4.638Zm-12.21-56.773c1.376 2.564 4.89 3.503 6.05 3.178 1.026-.306 1.961-.568 2.803-.805 4.425-1.244 6.299-1.77 5.386-4.106a223.83 223.83 0 0 1-2.371-6.181c-1.068-2.892-1.208-3.27-1.941-3.173-1.15.169-2.21.322-3.187.463l-.398.057-.016.002c-8.302 1.198-10.28 1.483-9.768 2.728l.136.345.261.658c.916 2.315 1.842 4.657 3.045 6.834Zm150.542-10.473c35.326 100.508 27.935-125.753-1.522-131.495-3.067-.616-3.825.572-4.588 1.768-.399.626-.8 1.254-1.535 1.627-3.804 10.148-7.608 24.81-7.826 32.25-.543 16.794.87 24.125.87 24.125-.293 2 5.111 1.837 10.102 1.688 3.665-.11 7.107-.213 7.905.552 7.282 6.934 9.022 27.23 2.536 34.345-.324.344-1.021.304-1.762.261-.502-.029-1.023-.06-1.463.028-.746.142-1.492.344-2.243.548-.78.211-1.564.424-2.358.571-1.531.28-2.802.413-3.837.522-1.708.179-2.775.291-3.307.881-.887.982-.298 3.287 1.271 9.425a734.11 734.11 0 0 1 1.054 4.16c2.693 10.786 3.677 12.511 4.718 14.339.556.975 1.128 1.98 1.985 4.405Zm-13.949-63.346c2.065 26.472 2.536 27.628 5.254 27.339.072-.01.538-.023 1.166-.041 1.571-.045 4.16-.119 4.16-.248l.047-.005c1.091-.116 5.176-.551 5.605-1.548 0 0-5.58-17.371-3.442-24.775l.096-.324c1.155-3.884 1.449-4.871-2.995-4.696l-.916.037c-6.158.246-8.232.329-8.854 1.318-.316.503-.256 1.24-.167 2.352.015.186.031.383.046.591ZM249 117.955c.109 2.781-3.623 16.18-7.572-7.151-2.79-16.649 6.558-21.38 7.572 7.151Zm-16.666-85.81c-1.739-.686-6.739 1.734-7.319 3.576-10.543 32.504-8.913 52.475-1.014 94.585.036.145 3.116 15.422 2.971 15.458 12.173 51.969 24.927 45.396 23.55 43.699-11.413-13.94-19.058-46.841-22.536-64.466-13.659-69.666 4.348-92.851 4.348-92.851Zm-13.442 14.302c-19.855 16.071-39.891 25.859-45.942 28.025-29.876 10.677-43.813 12.989-50.737 14.138-6.309 1.046-6.795 1.127-8.212 5.69-7.826 25.75-7.934 42.832 8.478 61.648.048.055.088.104.125.149.065.08.119.147.182.203.304.272.818.311 3.815.536 2.981.224 8.422.633 18.56 1.64 43.969 4.347 55.228 8.423 68.16 13.105 1.251.453 2.518.912 3.832 1.377 6.413 2.276 21.992 11.666 20.724 11.052 1.791.892.057-2.783-2.424-8.038-2.336-4.95-5.334-11.301-6.67-16.557-17.741-69.894-13.033-92.845-9.725-108.968.245-1.197.483-2.356.704-3.494.072-.506-.508-.83-.87-.506ZM18.857 106.76c3.007-.469.58 3.792-2.427 4.515-12.537 3.178-10.254-2.456 2.427-4.515Zm-3.08 8.74c-2.065.759-10.29 2.889-10.398 1.842-.471-5.164 18.877-4.948 10.398-1.842Zm-11.884 5.779c-.217 2.419 2.5 2.311 4.928 1.95 7.29-1.096 7.467-1.649 8-3.308.082-.254.172-.534.297-.845.543-1.301-12.971-.325-13.225 2.203Zm-1.05 9.137c-.254 2.961 1.558 13.868 1.775 15.06l.039.216c.145.811.215 1.201.447 1.416.216.2.572.249 1.258.345l.068.009c4.927.722 12.137-.578 11.739-2.384-1.971-8.818-1.948-13.959-1.934-16.881.008-1.814.012-2.773-.466-3.226-.537-.51-1.683-.382-4.114-.11l-.524.058c-1.265.14-2.843.305-4.81.441-3.764.27-3.6 2.76-3.498 4.278.02.308.038.577.02.778Zm15.797 18.13c-2.102.108-13.008 1.155-11.993 2.853 1.435 2.443 4.695 1.371 9.455-.195 1.009-.332 2.085-.686 3.226-1.033.942-.289-.036-1.662-.688-1.625Zm2.753 5.706c-.362-1.156-.906-1.806-2.464-1.337-1.148.362-2.342.556-3.536.75-.954.155-1.908.31-2.84.551-3.406.83-5.073 3.611 2.065 2.022.29-.036 6.884-1.625 6.775-1.986Zm.58 2.853c-1.34-.217-9.746.867-8.188 2.708 1.28 1.519 1.636 1.48 2.881 1.343.236-.026.503-.056.814-.079l.552-.034c2.077-.125 6.895-.414 6.042-1.591-.135-.19-.271-.402-.411-.619-.499-.776-1.04-1.615-1.69-1.728Zm20.036-4.695c.58 3.828 2.029 7.259 4.638 10.112a62.552 62.552 0 0 1 1.61 1.831c1.843 2.161 2.012 2.358 5.455 1.889.122-.014.27-.027.435-.042 1.147-.105 3.088-.283 2.645-1.042-8.841-15.493-4.385-14.409-3.95-13.29.552 1.438 1.028 2.735 1.456 3.901 3.226 8.794 3.745 10.21 13.725 9.317.109 0 .326-.578.254-.722-10-15.06-4.203-14.627-4.13-12.496.29 6.718 7.79 13.182 8.949 13.002.638-.107 1.275-.204 1.888-.298 2.934-.449 5.33-.816 4.85-1.653l-.156-.265c-1.248-2.113-7.786-13.175-5.314-13.928.88-.267 1.306 1.029 1.982 3.09.603 1.838 1.406 4.284 2.91 6.77 2.5 4.153 5 5.345 10.688 3.322.507-.18.652-.794.362-1.192-1.63-2.203-6.594-10.979-4.964-13.037.926-1.198 1.472.569 2.043 2.419.256.828.517 1.673.82 2.276 4.85 9.731 6.31 9.399 10.024 8.555a30.087 30.087 0 0 1 2.367-.465c1.05-.145 1.268-.578.688-1.517-8.587-13.507-3.587-13.435-3.37-11.918.653 4.947 5.725 13.723 10.254 12.098 1.836-.665 1.658-.901.669-2.212-1.157-1.535-3.426-4.543-4.872-11.439-.145-.831 1.015-1.192 1.341-.434.052.124.139.379.261.735.976 2.854 4.169 12.187 9.195 12.122.723 0 1.447-.223 2.177-.448.55-.17 1.103-.341 1.664-.418 1.558-.253 1.123-.867.435-1.589-19.747-20.225-11.087-57.785-3.95-66.633.435-.541.036-1.3-.616-1.264-5.922.22-13.389 1.139-26.187 2.768l-2.632.335c-9.984 1.273-23.01 2.934-40.6 4.987-10.616 1.228-14.82 2.6-17.61 5.634-8.224 8.884-9.854 25.858-8.079 35.645 5.218 28.387 18.297 31.421 16.594 28.893-4.89-7.187-5.942-16.433-3.514-13.76 0 0 .76 5.85 5.108 12.315 2.329 3.481 4.54 3.001 6.635 2.546.513-.111 1.019-.221 1.518-.271 1.268-.108 1.594-.361.543-1.444-4.565-4.84-7.21-13.435-5.036-13.471.398 0 .724.289.797.686Z" fill="#070A0B"/><path fill-rule="evenodd" clip-rule="evenodd" d="m96.612 163.33-.016.002.414-.059-.398.057Zm229.809-98.784c-1.841 1.188-1.029 6.46 2.035 35.17 1.774 16.857 1.232 21.139 2.564 21.83.547.284 1.407-.036 2.871-.341.036 0 .073 0 .073.037 4.836-.609 4.716-1.185 3.669-6.219-.506-2.434-1.229-5.91-1.713-10.936-1.15-11.826-1.636-20.423-1.983-26.562-.658-11.653-.816-14.45-4.067-13.67-1.58.388-2.722.22-3.449.69Zm5.386 51.764c.131 1.313.286 2.864 2.664 2.512 1.812-.253 1.812-1.192 1.667-2.673-1.063-9.676-1.909-18.825-2.627-26.592-1.313-14.207-2.199-23.792-3.207-23.535-.26.069-.505.124-.734.176-3.242.736-3.319.754-.171 28.246.006.086.105.856.26 2.058.689 5.353 2.479 19.263 2.095 19.322.02.155.036.319.053.486Zm-35.379 73.117c1.92.433 1.92-.867 1.92-1.987-.69-44.774 1.88-52.222.145-53.407-.542-.37-1.503-.129-3.116-.223-1.392-.08-2.263-.152-2.808.235-1.424 1.012-.603 5.164-.996 20.531-.707 28.38-1.811 33.873-.309 34.708.809.45 2.374-.451 5.164.143Zm.749-41.02c.39-8.66.551-12.234-.641-12.178-4.916.227-4.193 24.41-3.74 39.549.125 4.161.229 7.639.19 9.748 0 1.533.683 1.564 1.45 1.599.263.012.537.025.796.099.688.216 1.159-.47 1.159-1.12-.121-17.573.429-29.767.786-37.697ZM279.743 26.04c1.998 9.365 3.91 18.333 3.388 20.335-.29 1.083.108 1.517 1.195 1.408 3.738-.412 5.474-.45 6.05-1.284.787-1.139-.59-3.762-1.992-10.85-5.107-25.556-3.674-34.255-6.087-35.49-1.028-.526-2.753.302-5.978 1.758-1.572.695.989 12.704 3.424 24.123Zm7.767 18.902c.064.008.127.016.186.025.88.135.382-2.253-.004-4.108-.234-1.123-.427-2.05-.25-2.104-3.245-14.51-4.098-23.659-4.604-29.095-.681-7.31-.737-7.905-5.142-5.792-1.486.722 6.159 35.5 7.717 40.412.134.401 1.293.555 2.097.662Z" fill="#070A0B"/></svg>