<svg width="199" height="50" fill="none" xmlns="http://www.w3.org/2000/svg"><path d="m30.965 36.382-8.903 3.87v-.387c-1.716.44-3.618.693-5.418.774-8.373-.081-15.019-4.463-15.096-9.676v-1.935c2.75 3.998 8.348 6.678 15.096 6.58 2.282.098 4.617-.265 6.58-.774l.774-1.936c-2.328.695-4.868 1.178-7.354 1.162-8.373.016-15.019-4.366-15.096-9.676v-1.549c2.75 3.697 8.336 6.376 15.096 6.193 3.04.183 6.014-.456 8.515-1.548l.387-1.935c-2.443 1.288-5.61 2.037-8.902 1.935-8.373.102-15.019-4.28-15.096-9.676v-1.548c2.75 3.782 8.348 6.461 15.096 6.58 3.835-.119 7.47-1.133 10.45-2.71l.387-2.322c-2.704 2.004-6.653 3.296-10.837 3.483C8.27 21.1 1.625 16.718 1.548 11.224 1.625 6 8.271 1.617 16.644 1.548c4.99.07 9.626 1.82 12.386 4.645l.268.448 1.952.007-.285-.455C28.22 2.463 22.73 0 16.644 0 7.38 0 0 5.106 0 11.224v20.127c.325 5.972 7.537 10.837 16.644 10.837 6.014 0 11.42-2.366 14.32-5.806Z" fill="#263238"/><path d="m27.344 50 3.125-13.281-8.985 3.906 5.47-23.047H16.405L19.141 6.25h33.593L50 17.578H39.062l-2.343 6.25 12.11-5.078L27.343 50Zm5.468-16.016-1.562 7.813 12.89-19.531-10.546 4.687 4.687-10.937h10.547l1.953-8.203H20.313l-1.954 8.203h10.547L23.828 37.89l8.985-3.907Z" fill="#FABF2C"/><path d="M74.69 14.63c0 1.096-.395 1.959-1.186 2.59-.786.63-1.882.946-3.287.946-1.295 0-2.44-.244-3.437-.73v-2.391c.82.365 1.511.623 2.076.772a6.2 6.2 0 0 0 1.56.224c.565 0 .996-.108 1.295-.324.304-.216.457-.537.457-.963a1.04 1.04 0 0 0-.2-.63 2.174 2.174 0 0 0-.59-.54c-.254-.172-.777-.445-1.568-.822-.742-.348-1.298-.683-1.668-1.004a3.771 3.771 0 0 1-.889-1.12c-.22-.427-.332-.925-.332-1.495 0-1.074.363-1.917 1.088-2.532.73-.614 1.737-.921 3.021-.921a7.1 7.1 0 0 1 1.802.224c.575.15 1.175.36 1.8.63l-.83 2.001c-.647-.265-1.184-.45-1.61-.556a5.12 5.12 0 0 0-1.245-.157c-.487 0-.86.113-1.12.34-.26.227-.39.523-.39.888 0 .227.052.426.157.598.105.166.271.329.498.49.233.154.778.437 1.636.846 1.134.543 1.912 1.088 2.332 1.635.42.543.63 1.21.63 2Zm5.624-3.055h.847c.79 0 1.383-.155 1.776-.465.393-.315.59-.772.59-1.37 0-.602-.167-1.048-.499-1.336-.326-.287-.84-.431-1.544-.431h-1.17v3.602Zm5.81-1.926c0 1.306-.41 2.305-1.228 2.997-.814.692-1.973 1.038-3.478 1.038h-1.104V18H77.74V5.864h3.876c1.472 0 2.59.318 3.354.955.769.63 1.153 1.574 1.153 2.83Zm5.715 1.603h.83c.813 0 1.414-.136 1.801-.407.387-.271.581-.697.581-1.279 0-.575-.2-.985-.598-1.228-.392-.244-1.004-.365-1.834-.365h-.78v3.279Zm0 2.091V18h-2.574V5.864h3.537c1.649 0 2.869.302 3.66.905.791.598 1.187 1.508 1.187 2.731 0 .714-.196 1.35-.59 1.91-.392.553-.948.987-1.668 1.302A492.302 492.302 0 0 0 98.961 18h-2.856l-2.897-4.657h-1.37ZM101.338 18V5.864h2.573V18h-2.573Zm17.244 0h-3.27l-5.28-9.18h-.074c.105 1.62.157 2.777.157 3.47V18h-2.299V5.864h3.246l5.271 9.09h.058c-.083-1.578-.125-2.693-.125-3.346V5.864h2.316V18Zm8.52-6.815h4.815v6.292a13.15 13.15 0 0 1-2.209.531c-.686.105-1.389.158-2.108.158-1.832 0-3.232-.537-4.2-1.61-.963-1.08-1.444-2.626-1.444-4.64 0-1.96.558-3.487 1.676-4.583 1.124-1.095 2.679-1.643 4.665-1.643 1.245 0 2.446.249 3.603.747l-.855 2.059a6.105 6.105 0 0 0-2.764-.664c-1.113 0-2.003.373-2.673 1.12-.67.747-1.004 1.752-1.004 3.013 0 1.317.268 2.325.805 3.022.542.691 1.328 1.037 2.357 1.037.537 0 1.082-.055 1.635-.166v-2.531h-2.299v-2.142Zm8.561-5.32h3.777c1.721 0 2.969.246 3.744.738.78.487 1.17 1.265 1.17 2.333 0 .724-.171 1.32-.514 1.784a2.026 2.026 0 0 1-1.353.839v.083c.769.171 1.322.492 1.66.963.343.47.515 1.095.515 1.875 0 1.107-.402 1.97-1.204 2.59-.797.62-1.882.93-3.254.93h-4.541V5.864Zm2.574 4.805h1.494c.697 0 1.201-.107 1.511-.323.315-.216.473-.573.473-1.071 0-.465-.172-.797-.515-.996-.337-.205-.874-.307-1.61-.307h-1.353v2.697Zm0 2.042v3.163h1.676c.709 0 1.232-.136 1.569-.407.338-.27.507-.686.507-1.245 0-1.007-.72-1.51-2.159-1.51h-1.593Zm20.713-.796c0 2.008-.498 3.552-1.494 4.631-.996 1.08-2.423 1.619-4.283 1.619-1.859 0-3.287-.54-4.283-1.619-.996-1.079-1.494-2.628-1.494-4.648 0-2.02.498-3.561 1.494-4.624 1.002-1.068 2.435-1.602 4.3-1.602 1.865 0 3.29.537 4.275 1.61.99 1.074 1.485 2.618 1.485 4.632Zm-8.856 0c0 1.355.257 2.376.772 3.063.514.686 1.283 1.029 2.307 1.029 2.053 0 3.08-1.364 3.08-4.092 0-2.734-1.021-4.101-3.063-4.101-1.024 0-1.796.346-2.316 1.038-.52.686-.78 1.707-.78 3.063ZM169.745 18l-.88-2.889h-4.424l-.88 2.889h-2.773l4.283-12.186h3.146l4.3 12.186h-2.772Zm-1.494-5.047a2193.85 2193.85 0 0 1-1.378-4.44c-.1-.344-.172-.615-.216-.814-.183.708-.706 2.46-1.569 5.254h3.163Zm9.225-1.701h.83c.814 0 1.414-.136 1.802-.407.387-.271.581-.697.581-1.279 0-.575-.2-.985-.598-1.228-.393-.244-1.004-.365-1.835-.365h-.78v3.279Zm0 2.091V18h-2.573V5.864h3.536c1.649 0 2.869.302 3.661.905.791.598 1.187 1.508 1.187 2.731 0 .714-.197 1.35-.59 1.91-.393.553-.949.987-1.668 1.302A495.632 495.632 0 0 0 184.598 18h-2.855l-2.897-4.657h-1.37Zm19.568-1.527c0 1.998-.57 3.528-1.71 4.59C194.2 17.47 192.559 18 190.412 18h-3.436V5.864h3.81c1.981 0 3.519.523 4.615 1.57 1.096 1.045 1.643 2.506 1.643 4.382Zm-2.672.066c0-2.606-1.151-3.91-3.454-3.91h-1.369v7.903h1.104c2.479 0 3.719-1.33 3.719-3.993Z" fill="#243037"/></svg>