<svg width="260" height="240" fill="none" xmlns="http://www.w3.org/2000/svg"><path d="M132.57 130.022c4.526.981 7.342 2.817 9.526 5.507.823 1.012 1.519 2.183 1.93 3.417 1.519 4.589 2.88 9.241 4.241 13.893.158.538.031 1.139.031 1.899-2.658 1.234-5.316 1.677-8.133 1.424-6.012-.538-12.025-.791-18.006.474-3.386.728-5.95-.981-8.513-2.721-.475-.317-.759-1.298-.696-1.931.221-2.626.538-5.253.918-7.848.316-2.215 1.107-4.304 2.563-6.012 2.627-3.133 4.81-6.678 8.892-8.766-1.265-1.013-2.31-1.741-3.259-2.595-1.709-1.519-2.848-3.323-2.785-5.76.063-1.899-.032-3.829-.063-5.728-.032-1.804.379-3.449 1.455-4.968 1.013-1.424 1.741-3.007 3.481-3.798 2.469-1.107 4.937-1.993 7.659-1.55.823.126 1.74.506 2.342 1.044 1.424 1.266 2.784 2.627 3.955 4.114 1.899 2.437 2.912 5.127 1.614 8.228-.158.411-.19.854-.253 1.297-.664 4.019-2.057 7.627-6.899 10.38Zm1.234 12.5c0-.126.032-.221.032-.348.158.095.285.222.443.317a.943.943 0 0 0-.316.126c-.19.222-.443.38-.507.633-.031.158.222.38.317.57.126-.19.348-.38.316-.57 0-.253-.19-.506-.285-.728Zm7.849-.221c-.19.601-.38 1.234-.57 1.835.127.032.285.064.411.064.064-.602.127-1.235.159-1.899a139.16 139.16 0 0 1-1.773-2.943c.254 2.626.254 2.626 1.773 2.943Zm.791-4.462c-.032.253-.064.506-.095.791.031-.253.095-.506.126-.76-1.012-1.044-1.993-2.12-3.038-3.133-.379-.348-.886-.822-1.455-.126 2.215 2.373 2.215 2.373 4.462 3.228Zm-8.323-3.893c.57 1.709-1.139 2.532-1.519 3.861-.19.601-.57 1.329.348 1.709.19-.095.348-.127.411-.222a212.362 212.362 0 0 0 2.564-4.113 64.322 64.322 0 0 1-1.931-1.171c-.411-1.709-1.202-2.279-2.025-1.361-1.297 1.392-2.532 2.816-3.576 4.367-.411.57-.728 1.614.854 2.373 1.108-2.151 2.216-4.588 4.874-5.443Zm.918-24.399c-1.076-.696-1.899-1.266-2.754-1.772-.886-.538-1.677-.38-2.278.443-.538.728-.886 1.488.095 2.184.981-.253 1.772-1.551 2.975-.602-.697 2.469-.697 2.469-.19 3.925 1.709-.95.949-2.912 2.152-4.178Zm-4.969 31.773c-.506.886-.981 1.519-1.234 2.247-.127.348.253.854.443 1.392 1.456-1.013 1.931-1.994.791-3.639Zm-8.418 5.221c-2.151 1.33-2.151 1.361-2.531 3.735 1.171-1.298 2.658-1.804 2.531-3.735Zm13.387 6.108c-.19.158-.475.38-.728.633.285.253.538.538.823.791.095.063.284.063.411.032.316-.158.633-.38.949-.57-.284-.253-.538-.538-.854-.791-.095-.095-.285-.063-.601-.095Zm2.278-7.5c1.203-.918 1.614-1.709.823-2.88-1.266.538-1.456 1.361-.823 2.88Zm-13.481-.285c.127-.031.316-.031.411-.095.697-.411 1.108-.949.823-1.772-.063-.19-.443-.443-.633-.411-.917.095-1.139.791-1.044 1.582.063.253.285.475.443.696Zm3.671-29.62c.696-1.171.601-2.026.063-2.975-1.392.981-1.107 1.804-.063 2.975Zm.316 10.443c-.095-.253-.189-.538-.284-.791-.254.253-.538.506-.792.759.254.253.507.538.76.791.095-.253.221-.506.316-.759Zm-5.601-3.988c-.158 1.804-.158 1.804 1.171 2.121-.411-.728-.728-1.266-1.171-2.121Zm15.064 16.298c-.127.063-.317.095-.38.19-.19.475-.348.949-.475 1.424 0 .032.285.19.317.158.316-.38.664-.759.917-1.171.032-.095-.253-.379-.379-.601Zm-16.868 14.905c-.443-.031-.886-.126-1.234-.063-.158.032-.19.475-.285.728.38.095.76.253 1.108.19.126 0 .221-.443.411-.855Zm3.829-39.779c-.158-.379-.253-.633-.348-.886-.316.253-.696.475-.949.791-.063.095.19.443.316.665.317-.158.665-.348.981-.57Zm.348 5.57c.222 0 .412-.032.633-.032.032-.633.064-1.297.064-1.93 0-.095-.222-.285-.285-.253-.222.063-.57.221-.57.348 0 .601.095 1.234.158 1.867Zm6.551 28.798c-.158-.158-.253-.253-.316-.348-.285.253-.57.538-.823.822-.032.032.253.285.38.443.253-.316.506-.632.759-.917Zm-3.323 6.645c.317-.095.697-.126.792-.316.094-.158-.127-.506-.19-.76-.253.159-.538.254-.697.475-.094.095.064.412.095.601Zm-.981-13.481c-.063-.095-.126-.221-.221-.316-.095.221-.222.411-.285.633-.032.095.127.221.19.316.095-.221.221-.411.316-.633Zm3.26-23.544c.095-.032.221-.032.221-.095.032-.127.032-.253.032-.38-.127.032-.253.063-.38.127.064.126.095.253.127.348Zm-3.893 4.398c.159.127.285.285.444.412.063-.127.126-.222.158-.348 0-.127-.032-.253-.064-.38-.189.095-.348.19-.538.316Zm7.754-4.557a1.247 1.247 0 0 1-.159-.284c-.063.095-.189.158-.189.253s.095.19.158.316c.031-.095.126-.19.19-.285Zm-5.348 1.994c-.064-.126-.095-.253-.159-.38-.031.222-.031.443-.063.697.063-.127.158-.222.222-.317Zm8.069-5.664c-.063-.095-.158-.222-.221-.222-.095 0-.158.127-.253.222.126.126.253.221.379.348 0-.127.064-.222.095-.348Zm-1.962 34.272c-.095.095-.316.19-.316.253.031.253.158.475.253.728.095-.095.285-.19.285-.253-.032-.253-.158-.475-.222-.728Zm-9.462 2.184c-.127-.222-.221-.443-.348-.665-.095.095-.317.222-.317.253.064.222.222.443.349.665.095-.095.221-.19.316-.253Zm128.957-17.247c2.025 3.607 4.051 7.215 4.431 11.456 1.139 1.234.822 2.468-.127 3.544-1.013 1.108-.443 2.184-.253 3.418a152.9 152.9 0 0 0-2.564 2.341c-1.202-.189-2.436-.158-3.512-.569-3.196-1.234-6.393-.791-9.652-.57-4.874.348-9.779.475-14.684.57-1.582.032-3.196-.38-4.81-.57-.601-1.392-1.076-2.595-1.614-3.829.158-.38.316-.791.443-1.234.411-1.266 1.076-2.5 1.171-3.766.348-4.272 2.658-7.5 5.253-10.57.728-.886 1.804-1.519 2.753-2.183.95-.665 1.962-1.266 3.197-2.026-.887-2.12-1.836-4.114-2.5-6.202-2.057-6.298-1.994-12.564 1.234-18.513.759-1.392 1.835-2.69 3.038-3.798 2.5-2.31 5.19-2.974 8.544-1.36 4.399 2.12 7.469 5 8.734 9.936 1.393 5.507.918 10.539-2.183 15.349-.855 1.329-2.026 2.531-2.405 4.272 2.5.759 5.063 1.361 5.601 4.399-3.766-3.133-4.399-3.355-7.342-2.31 2.057 1.012 3.829 1.93 5.665 2.689.38.127 1.044-.316 1.582-.474Zm-16.614 5.411c.032-.221.095-.443.127-.664-.095.19-.19.411-.254.601.032.127.127.285.127.411-.032.38-.348.886.38.886.19 0 .348-.348.506-.569a21.98 21.98 0 0 1-.886-.665Zm-12.627 8.228c1.646.475 1.899-.949 2.532-1.899.221-.727.411-1.487.696-2.436-.823.253-.981.664-.918 1.265l.19 1.235c-1.519-.253-1.962.822-2.373 1.898-.19.317-.38.602-.538.918.095.063.221.127.316.19.127-.285.254-.601.348-.886.032-.063-.158-.158-.253-.285Zm20.475-13.354c-.633 1.044-.601 1.867.95 2.405.379-1.013 1.962-1.329 1.17-3.165-.759.317-1.487.601-2.246.918.031-1.804-1.045-1.772-2.595-1.329-.127 1.202-1.393 2.152-1.393 3.734 1.551-.95 2.848-1.772 4.114-2.563Zm6.583 9.841a253.917 253.917 0 0 0 3.67-3.164c-.506-1.203-.917-2.31-1.455-3.323-.158-.285-.696-.38-1.013-.538-1.108.823-1.614 1.709-1.202 2.911.664.19 1.17.317 1.835.507-.665 1.361-1.203 2.5-1.772 3.671-.127.221-.222.443-.348.664.126-.221.19-.474.285-.728Zm-.633-28.734c.348-3.766-1.171-7.057-2.627-10.285-1.266-2.816-5.063-4.683-7.785-3.67-2.816 1.043-5.316 2.784-6.202 5.885-2.026 6.994-.76 13.481 3.291 19.462.443.665 1.329 1.266 2.12 1.456 3.987 1.013 9.146-1.93 10.127-5.886.569-2.247.728-4.62 1.076-6.962Zm-9.811 29.747c-.727 1.203-1.392 2.089-1.803 3.133-.159.411.189 1.076.443 1.551.253.474 1.297.443 1.487.031.601-1.202.601-2.025-.127-4.715Zm2.279 1.044c3.576-1.582 2.5-4.114 2.5-6.297-.285.032-.601-.032-.823.063-.253.127-.538.348-.601.601-.348 1.646-.633 3.355-1.076 5.633Zm-15.412-6.297c1.045-1.741 3.576-2.405 4.273-5.127-2.659 1.013-3.292 3.197-4.273 5.127Zm23.165-3.924c-.728-1.045-1.582-1.298-2.468-.158-.348.443-.823 1.012-.222 1.487.95.791 1.614-.158 2.279-.633.253-.127.506-.601.411-.696Zm-19.747 4.24c1.013-1.202 1.013-1.202 1.266-2.721-2.31 1.392-2.31 1.392-1.266 2.721Zm5.38 6.551c-.253-.095-.538-.19-.791-.285-.19.475-.443.95-.602 1.456-.063.19.095.443.127.665.222-.159.538-.254.665-.444.253-.443.379-.917.601-1.392Zm15.76 3.07c-.38-.412-.57-.728-.728-.697-.791.127-1.203.633-1.14 1.425 0 .189.443.506.475.474.475-.379.95-.791 1.393-1.202Zm-21.899 1.012c-.095-.253-.127-.633-.317-.727-.19-.095-.506.031-.791.094.127.317.222.665.348.982.253-.127.506-.254.76-.349Zm5.822-16.361c-.158-.126-.284-.253-.443-.379-.348.348-.727.728-1.076 1.107-.063.064-.031.38 0 .38.222.032.538.127.665.032.316-.348.57-.76.854-1.14Zm12.279 8.798c-.158-.095-.316-.158-.475-.253-.284.411-.601.823-.854 1.234-.063.095.032.38.063.38.222.031.601.095.665-.032.221-.411.38-.886.601-1.329Zm-22.089 5.285c1.203.158 2.089-.127 1.424-1.646-.569.665-1.012 1.14-1.424 1.646Zm18.355-.76c-.38.443-.538.538-.57.633-.126.348-.19.696-.285 1.076.317-.19.697-.316.918-.569.127-.127-.031-.507-.063-1.14Zm-12.026-3.734c-.474-.221-.791-.475-.886-.411-.316.221-.569.538-.759.886-.032.063.285.348.411.538.38-.317.76-.633 1.234-1.013Zm9.051-4.525c-.316-.158-.696-.443-.759-.38-.285.285-.475.633-.697.981.222.127.57.38.665.317.285-.222.506-.57.791-.918Zm6.203 8.386c0 .127-.064.285 0 .411.031.064.221.032.316.064 0-.127.032-.285 0-.412-.031-.063-.221-.031-.316-.063Zm-6.329-17.374c-.095-.095-.19-.284-.254-.284-.253.031-.474.126-.727.189.094.095.189.285.253.285.253 0 .474-.095.728-.19Zm13.196 13.766c-.032-.126-.063-.253-.127-.379-.126.063-.348.158-.316.189.031.19.126.349.221.538.064-.126.159-.253.222-.348Zm-20.981-19.05c.063-.254.126-.412.158-.57-.095.032-.285.063-.285.095 0 .095.063.221.127.475Zm19.43 27.342c-.095.031-.221.063-.316.095.126.063.285.094.411.158-.031-.095-.063-.158-.095-.253Zm-20.981-4.463c-.095 0-.253-.031-.316.032-.064.095-.064.222-.095.348.158-.031.348-.031.538-.063a.94.94 0 0 1-.127-.317Zm-154.843 71.9c2.025 3.607 4.05 7.215 4.43 11.456 1.14 1.234.823 2.468-.127 3.544-1.012 1.108-.443 2.184-.253 3.418-.823.728-1.677 1.519-2.563 2.342-1.17-.19-2.437-.159-3.513-.57-3.196-1.234-6.392-.791-9.652-.57-4.873.348-9.778.475-14.683.57-1.583.032-3.197-.38-4.81-.57-.602-1.392-1.077-2.595-1.615-3.829.159-.411.317-.791.444-1.234.41-1.266 1.076-2.5 1.17-3.766.349-4.272 2.659-7.5 5.254-10.57.728-.886 1.803-1.519 2.753-2.183.95-.665 1.962-1.266 3.196-2.026-.886-2.12-1.835-4.114-2.5-6.202-2.057-6.298-1.994-12.564 1.234-18.513.76-1.392 1.836-2.69 3.038-3.798 2.5-2.31 5.19-2.974 8.545-1.36 4.398 2.12 7.468 5 8.734 9.937 1.392 5.506.918 10.538-2.184 15.348-.854 1.329-2.025 2.531-2.405 4.272 2.5.759 5.064 1.361 5.602 4.399-3.766-3.133-4.4-3.355-7.342-2.31 2.057 1.012 3.829 1.93 5.664 2.689.412.095 1.045-.316 1.583-.474Zm-16.614 5.38c.031-.222.094-.443.126-.665a4.81 4.81 0 0 0-.253.601c.032.127.127.285.127.412-.032.379-.349.886.38.886.19 0 .347-.348.506-.57-.285-.221-.602-.443-.886-.664Zm-12.627 8.259c1.645.475 1.899-.949 2.531-1.899.222-.727.412-1.487.697-2.436-.823.253-.981.664-.918 1.266l.19 1.234c-1.52-.253-1.962.822-2.374 1.898-.19.317-.38.602-.538.918.095.063.222.127.317.19.126-.285.253-.601.348-.886.032-.063-.158-.19-.253-.285Zm20.506-13.386c-.633 1.044-.6 1.867.95 2.405.38-1.013 1.962-1.329 1.17-3.165-.759.317-1.487.602-2.246.918.031-1.804-1.045-1.772-2.595-1.329-.127 1.203-1.393 2.152-1.393 3.734 1.52-.949 2.817-1.74 4.114-2.563Zm6.551 9.842a255.71 255.71 0 0 0 3.671-3.165c-.506-1.202-.918-2.31-1.456-3.323-.158-.284-.696-.379-1.012-.538-1.108.823-1.614 1.709-1.203 2.912.665.19 1.17.316 1.835.506-.664 1.361-1.202 2.5-1.772 3.671-.126.222-.221.443-.348.665a2.91 2.91 0 0 0 .285-.728Zm-.633-28.703c.348-3.766-1.17-7.057-2.626-10.285-1.266-2.816-5.064-4.684-7.785-3.671-2.817 1.044-5.317 2.785-6.203 5.886-2.025 6.994-.76 13.481 3.291 19.463.443.664 1.33 1.265 2.12 1.455 3.988 1.013 9.146-1.93 10.127-5.886.57-2.278.728-4.652 1.076-6.962Zm-9.81 29.716c-.728 1.202-1.392 2.088-1.804 3.132-.158.412.19 1.076.443 1.551.253.475 1.298.443 1.487.032.602-1.203.602-2.026-.126-4.715Zm2.31 1.044c3.576-1.582 2.5-4.114 2.5-6.298-.285.032-.601-.031-.823.064-.253.126-.538.348-.601.601-.38 1.677-.665 3.354-1.076 5.633Zm-15.443-6.298c1.044-1.74 3.576-2.405 4.272-5.126-2.627 1.012-3.291 3.196-4.272 5.126Zm23.196-3.924c-.728-1.044-1.582-1.297-2.468-.158-.348.443-.823 1.013-.222 1.487.95.791 1.614-.158 2.279-.633.221-.095.475-.569.411-.696Zm-19.747 4.241c1.013-1.203 1.013-1.203 1.266-2.722-2.342 1.424-2.342 1.424-1.266 2.722Zm5.348 6.55c-.253-.095-.538-.189-.79-.284-.19.474-.444.949-.602 1.455-.063.19.095.443.127.665.221-.158.538-.253.664-.443.253-.412.411-.918.601-1.393Zm15.792 3.07c-.38-.411-.57-.728-.728-.696-.791.126-1.203.633-1.14 1.424 0 .19.444.506.475.475.475-.38.918-.792 1.393-1.203Zm-21.93 1.013c-.096-.253-.127-.633-.317-.728-.19-.095-.507.032-.791.095.126.316.221.664.348.981.253-.127.506-.222.76-.348Zm5.822-16.361c-.158-.127-.285-.253-.443-.38-.348.348-.728.728-1.076 1.108-.063.063-.032.379 0 .379.221.032.538.127.664.032.349-.316.57-.759.855-1.139Zm12.279 8.797c-.159-.094-.317-.158-.475-.253-.285.412-.601.823-.855 1.234-.063.095.032.38.064.38.221.032.601.063.664-.031.254-.38.412-.855.602-1.33Zm-22.09 5.317c1.203.158 2.09-.127 1.425-1.646-.57.633-.981 1.14-1.424 1.646Zm18.355-.791c-.38.443-.538.538-.57.633-.126.348-.19.696-.284 1.076.316-.19.696-.317.918-.57.126-.127 0-.506-.064-1.139Zm-11.994-3.734c-.474-.222-.79-.475-.885-.412-.317.222-.57.538-.76.886-.032.064.285.348.411.538.38-.316.76-.633 1.234-1.012Zm9.02-4.494c-.317-.158-.697-.443-.76-.38-.285.285-.475.633-.696.981.221.127.57.38.665.317.316-.254.537-.602.79-.918Zm6.202 8.386c0 .127-.063.285 0 .411.032.064.222.032.317.064 0-.127.031-.285 0-.412 0-.063-.19-.063-.317-.063Zm-6.329-17.374c-.095-.095-.19-.284-.253-.284-.253.031-.475.126-.728.189.095.095.19.285.253.285.253-.031.507-.126.728-.19Zm13.228 13.735a1.783 1.783 0 0 0-.127-.38c-.126.063-.348.158-.316.19.032.19.127.348.222.538a2.09 2.09 0 0 1 .221-.348ZM58.582 209.77c.063-.253.127-.412.158-.57-.095.032-.253.064-.284.095.031.127.063.222.126.475Zm19.43 27.342c-.094.032-.22.063-.316.095.127.063.285.095.412.158a1.987 1.987 0 0 1-.095-.253Zm-20.98-4.43c-.095 0-.254-.032-.317.031-.063.095-.063.222-.095.348.19-.031.348-.031.538-.063-.063-.095-.095-.222-.127-.316ZM79.817 34.863c2.025 3.608 4.05 7.215 4.43 11.456 1.14 1.234.823 2.468-.127 3.544-1.012 1.108-.443 2.184-.253 3.418-.823.728-1.677 1.519-2.563 2.342-1.171-.19-2.437-.159-3.513-.57-3.196-1.234-6.392-.791-9.652-.57-4.873.349-9.778.475-14.683.57-1.583.032-3.197-.38-4.81-.57-.602-1.392-1.077-2.594-1.615-3.829.159-.38.317-.79.443-1.234.412-1.266 1.076-2.5 1.171-3.766.348-4.272 2.659-7.5 5.253-10.57.728-.886 1.804-1.519 2.754-2.183.95-.665 1.962-1.266 3.196-2.025-.886-2.12-1.835-4.114-2.5-6.203-2.057-6.297-1.994-12.563 1.234-18.513.76-1.392 1.836-2.69 3.038-3.797 2.5-2.31 5.19-2.975 8.545-1.361 4.398 2.12 7.468 5 8.734 9.937 1.392 5.506.918 10.538-2.184 15.348-.854 1.33-2.025 2.532-2.405 4.272 2.5.76 5.064 1.36 5.602 4.399-3.766-3.133-4.4-3.355-7.342-2.31 2.057 1.012 3.829 1.93 5.664 2.69.412.126 1.045-.317 1.583-.475Zm-16.615 5.411c.032-.221.095-.443.127-.664a4.81 4.81 0 0 0-.253.601c.032.127.126.285.126.412-.031.38-.348.886.38.886.19 0 .348-.349.506-.57-.284-.221-.6-.443-.886-.665Zm-12.626 8.228c1.645.475 1.898-.949 2.531-1.898.222-.728.412-1.488.697-2.437-.823.253-.981.664-.918 1.266l.19 1.234c-1.52-.253-1.962.823-2.374 1.899-.19.316-.38.6-.538.917.095.064.222.127.317.19.126-.285.253-.601.348-.886.032-.063-.158-.19-.253-.285Zm20.506-13.354c-.633 1.044-.601 1.867.95 2.405.38-1.013 1.962-1.33 1.17-3.165-.759.317-1.487.602-2.246.918.031-1.804-1.045-1.772-2.595-1.33-.127 1.203-1.393 2.153-1.393 3.735 1.52-.95 2.817-1.772 4.114-2.563Zm6.551 9.842a256.263 256.263 0 0 0 3.67-3.165c-.505-1.203-.917-2.31-1.455-3.323-.158-.285-.696-.38-1.013-.538-1.107.823-1.613 1.71-1.202 2.912.665.19 1.17.316 1.835.506-.664 1.36-1.202 2.5-1.772 3.67-.126.222-.221.444-.348.666.127-.222.19-.475.285-.728ZM77 16.255c.348-3.766-1.17-7.057-2.627-10.285-1.265-2.816-5.063-4.683-7.784-3.67-2.817 1.044-5.317 2.784-6.203 5.885-2.025 6.994-.76 13.482 3.291 19.463.443.664 1.33 1.265 2.12 1.455 3.988 1.013 9.146-1.93 10.127-5.886.57-2.247.728-4.62 1.076-6.962Zm-9.81 29.747c-.728 1.203-1.393 2.089-1.804 3.133-.158.412.19 1.076.443 1.55.253.476 1.298.444 1.487.033.602-1.203.602-2.057-.126-4.716Zm2.31 1.045c3.576-1.583 2.5-4.114 2.5-6.298-.285.032-.601-.032-.823.063-.253.127-.538.349-.601.602-.38 1.645-.665 3.354-1.076 5.633Zm-15.443-6.298c1.044-1.74 3.576-2.405 4.272-5.127-2.627 1.013-3.291 3.197-4.272 5.127Zm23.196-3.924c-.728-1.044-1.582-1.297-2.468-.158-.348.443-.823 1.012-.222 1.487.95.791 1.614-.158 2.279-.633.221-.126.475-.601.411-.696Zm-19.747 4.24c1.013-1.202 1.013-1.202 1.266-2.721-2.342 1.392-2.342 1.392-1.266 2.722Zm5.348 6.551c-.253-.095-.538-.19-.79-.285-.19.475-.444.95-.602 1.456-.063.19.095.443.127.665.221-.158.538-.253.664-.443.253-.443.411-.918.601-1.393Zm15.792 3.038c-.38-.411-.57-.728-.728-.696-.791.127-1.203.633-1.14 1.424 0 .19.444.507.475.475.475-.38.918-.791 1.393-1.203ZM56.715 51.7c-.095-.254-.127-.633-.316-.728-.19-.095-.507.031-.792.095.127.316.222.664.349.98a8.09 8.09 0 0 1 .759-.347Zm5.823-16.393c-.158-.127-.285-.253-.443-.38-.348.348-.728.728-1.076 1.108-.063.063-.032.38 0 .38.221.031.538.126.665.031.348-.316.57-.728.854-1.139Zm12.279 8.83c-.159-.096-.317-.159-.475-.254-.285.411-.602.823-.855 1.234-.063.095.032.38.064.38.221.032.6.095.664-.032.253-.411.412-.886.602-1.329Zm-22.09 5.284c1.203.158 2.09-.127 1.425-1.645-.57.632-.981 1.139-1.424 1.645Zm18.355-.76c-.38.444-.538.539-.57.634-.126.348-.19.696-.284 1.076.316-.19.696-.317.918-.57.126-.158 0-.506-.064-1.14ZM59.09 44.896c-.475-.222-.792-.475-.887-.412a2.59 2.59 0 0 0-.76.886c-.03.064.286.349.412.538.38-.284.76-.6 1.235-1.012Zm9.019-4.494c-.317-.158-.697-.443-.76-.38-.285.285-.475.633-.696.981.221.127.57.38.664.317.317-.253.538-.602.792-.918Zm6.202 8.386c0 .127-.063.285 0 .412.032.063.222.031.317.063 0-.127.031-.285 0-.412-.032-.063-.19-.031-.317-.063Zm-6.329-17.373c-.095-.095-.19-.285-.253-.285-.253.031-.475.126-.728.19.095.095.19.284.253.284.253 0 .475-.126.728-.19ZM81.21 45.18c-.032-.126-.063-.253-.127-.38-.126.064-.348.159-.316.19.032.19.126.349.221.539.064-.127.127-.253.222-.349ZM60.196 26.13c.063-.254.127-.412.158-.57-.095.032-.253.063-.285.095.032.095.064.221.127.475Zm19.43 27.342c-.094.031-.22.063-.316.095.127.063.285.095.412.158-.032-.095-.064-.158-.095-.253Zm-20.98-4.462c-.096 0-.254-.032-.317.031-.063.095-.063.222-.095.348.19-.031.348-.031.538-.063a.949.949 0 0 1-.127-.316Z" fill="#070A0B"/><path d="M176.083 130.719c.57 5.886-1.582 11.171-4.209 16.139-3.322 6.298-7.183 12.374-12.658 17.12-3.639 3.165-7.595 5.887-11.899 8.039-1.455.727-3.069 1.17-4.652 1.487a204.386 204.386 0 0 1-10.728 1.74c-3.038.412-6.076-.126-9.114-.506-6.804-.886-13.259-2.88-18.987-6.835-4.462-3.102-8.386-6.741-11.646-11.108-2.943-3.893-4.81-8.291-5.886-13.007-.601-2.626-1.044-5.285-1.234-7.943-.222-3.512.285-6.993 1.424-10.348.221-.665.601-1.297.76-1.962 1.36-5.791 4.24-10.918 7.215-15.95 3.607-6.107 8.354-11.265 14.082-15.506a8.103 8.103 0 0 1 1.867-.981c2.279-.886 4.62-1.677 6.899-2.595 2.532-1.013 5.095-1.74 7.848-1.614.127 0 .253.063.348.032 4.621-1.456 9.019.316 13.45 1.107.791.127 1.645.317 2.373.697 5.443 2.721 11.203 4.778 16.266 8.227.38.254.76.57 1.171.76 5.317 2.5 8.671 7.057 11.931 11.646 2.753 3.892 4.05 8.417 4.778 13.101.222 1.392.443 2.785.538 4.177.158 1.266.063 2.659.063 4.083ZM110.26 94.864l.063.095c.158-.412.222-.981.538-1.171 3.101-1.994 6.519-3.418 10.095-3.766 4.051-.38 8.197-.475 12.279.348 2.753.538 5.538.95 8.291 1.36.665.096 1.392 0 2.658 0-.949-.727-1.424-1.202-1.993-1.518-1.678-.95-3.576-1.044-5.349-1.55-3.544-1.014-7.025-1.33-10.727-1.045-3.323.285-6.456.918-9.526 2.215-1.202.506-2.342 1.076-3.544 1.52-2.912 1.075-5.412 2.752-7.753 4.746-2.944 2.5-4.463 6.266-7.69 8.544-.981.697-1.52 2.057-2.152 3.165-1.108 1.93-2.216 3.861-3.165 5.854a89.385 89.385 0 0 0-2.785 6.425c-.633 1.645-1.107 3.322-1.645 5-1.424 4.525-2.247 9.082-1.108 13.829.317 1.361.506 2.753.823 4.114.95 4.399 2.595 8.513 5.221 12.184a47.01 47.01 0 0 0 14.431 13.164c5 2.975 10.601 4.367 16.329 5.064 2.564.316 5.158.664 7.69.474 3.386-.221 6.709-.854 10.064-1.392 1.962-.317 3.924-.823 5.633-1.867 2.595-1.583 5.158-3.197 7.753-4.779 1.93-1.171 3.607-2.626 5.095-4.304a162.148 162.148 0 0 0 5.158-6.202c.443-.538.633-1.234.949-1.867 1.614-3.513 3.26-6.994 4.842-10.507 2.437-5.411 4.051-10.981 2.627-16.994-.095-.443-.095-.917-.158-1.392-.507-4.652-1.456-9.146-3.418-13.513-1.931-4.24-4.937-7.437-8.323-10.253-5.032-4.177-10.949-6.804-17.405-7.912-7.279-1.234-14.557-2.5-21.994-2.057-1.772.095-3.513.254-5.158.918-2.216.95-4.399 2.057-6.646 3.07Zm64.241 29.62-.126.222.158.063-.032-.285Zm19.462-96.646c-1.93-2.754-3.607-5-5.158-7.374-1.139-1.772-1.487-3.797-1.392-5.918.19-3.354 1.139-6.55 2.531-9.557 1.551-3.354 5.633-5.443 9.367-4.905 4.304.633 7.754 2.627 9.621 6.772.569 1.298 1.171 2.595 1.772 3.893 2.184 4.937.506 9.24-2.278 13.291-.507.728-1.425 1.203-2.184 1.74-.633.444-1.329.823-1.994 1.267-.126.063-.19.253-.411.6.949.729 1.867 1.583 2.911 2.216 2.532 1.55 4.146 3.797 5.412 6.424 1.361 2.848 2.468 5.791 2.974 8.924.412 2.5.918 4.905 2.121 7.215 1.107 2.152.19 3.513-2.279 3.956-4.082.696-8.133.918-12.215-.063-1.994-.475-3.987-.475-6.076-.19-3.576.506-7.215.696-10.823.886-2.595.127-3.892-1.202-4.336-3.987-.569-3.703.475-7.215 1.171-10.76.254-1.234.697-2.437 1.013-3.64.506-1.835 1.108-3.607 2.69-4.873.348-.284.633-.696.886-1.107 1.582-2.374 3.481-4.43 6.677-4.81Zm18.766 24.747c.064-.981.412-1.994.19-2.817-1.297-4.367-2.721-8.67-4.082-13.006-.981-3.07-3.323-4.526-6.266-5.032-3.323-.538-6.551-.38-9.462 1.74-2.817 2.058-5.475 4.241-7.12 7.374-.349.696-.697 1.392-.887 2.152-.537 2.279-.949 4.62-1.455 6.899-.57 2.69.474 4.24 3.323 4.399 2.974.19 5.981.126 8.955.126 1.583 0 3.133-.19 4.716-.126 3.955.19 7.816-.095 12.088-1.71ZM191.748 5.4c-3.038 6.044-3.07 6.456-.981 13.038.285.886.475 1.867.949 2.658 2.627 4.557 5.349 5.76 9.684 4.62 5-1.329 8.639-5.664 8.228-10.79-.443-5.38-2.5-10.096-7.816-12.69-1.773-.855-3.292-.792-4.906.157-1.455.886-2.943 1.74-5.158 3.007Zm-4.905 205.414c-1.93-2.753-3.608-5-5.158-7.373-1.14-1.773-1.488-3.798-1.393-5.918.19-3.355 1.14-6.551 2.532-9.557 1.551-3.355 5.633-5.443 9.367-4.905 4.304.633 7.753 2.626 9.621 6.772.569 1.297 1.17 2.595 1.772 3.892 2.183 4.937.506 9.241-2.279 13.292-.506.727-1.424 1.202-2.215 1.74-.633.443-1.329.823-1.994 1.266-.126.063-.19.253-.411.601.949.728 1.867 1.583 2.911 2.215 2.532 1.551 4.146 3.798 5.412 6.425 1.361 2.848 2.468 5.791 2.974 8.924.412 2.5.918 4.905 2.121 7.215 1.107 2.152.19 3.513-2.279 3.956-4.082.696-8.133.917-12.215-.064-1.994-.474-3.987-.474-6.076-.189-3.576.506-7.215.696-10.823.886-2.595.126-3.892-1.203-4.304-3.988-.569-3.702.475-7.215 1.171-10.759.253-1.235.696-2.437 1.013-3.64.506-1.835 1.107-3.607 2.69-4.873.348-.285.633-.696.886-1.108 1.614-2.405 3.512-4.43 6.677-4.81Zm18.798 24.716c.063-.982.411-1.994.19-2.817-1.298-4.367-2.722-8.671-4.083-13.006-.981-3.07-3.323-4.526-6.266-5.032-3.322-.538-6.55-.38-9.462 1.74-2.816 2.057-5.475 4.241-7.12 7.374-.348.696-.696 1.392-.886 2.152-.538 2.278-.95 4.62-1.456 6.899-.57 2.689.475 4.24 3.323 4.398 2.975.19 5.981.127 8.956.127 1.582 0 3.133-.19 4.715-.127 3.924.222 7.816-.063 12.089-1.708Zm-20.982-47.153c-3.038 6.045-3.069 6.456-.981 13.038.285.886.475 1.867.95 2.658 2.626 4.557 5.348 5.76 9.683 4.621 5.001-1.329 8.64-5.665 8.228-10.791-.443-5.38-2.5-10.095-7.816-12.69-1.772-.855-3.291-.792-4.905.158-1.456.886-2.943 1.709-5.159 3.006Zm-172.09-55.981c-1.93-2.753-3.608-5-5.158-7.374-1.14-1.772-1.488-3.797-1.393-5.917.19-3.355 1.14-6.551 2.532-9.557 1.55-3.355 5.633-5.444 9.367-4.906 4.304.633 7.753 2.627 9.62 6.773.57 1.297 1.171 2.595 1.773 3.892 2.183 4.937.506 9.241-2.279 13.291-.506.728-1.424 1.203-2.183 1.741-.633.443-1.33.823-1.994 1.266-.127.063-.19.253-.412.601.95.728 1.868 1.582 2.912 2.215 2.532 1.551 4.146 3.798 5.411 6.424 1.361 2.848 2.469 5.792 2.975 8.924.411 2.501.918 4.906 2.12 7.216 1.108 2.152.19 3.512-2.278 3.955-4.082.697-8.133.918-12.215-.063-1.994-.475-3.988-.475-6.077-.19-3.575.507-7.215.697-10.822.886-2.595.127-3.893-1.202-4.304-3.987-.57-3.703.474-7.215 1.17-10.76.254-1.234.697-2.436 1.013-3.639.507-1.835 1.108-3.608 2.69-4.873.348-.285.633-.697.886-1.108 1.551-2.373 3.45-4.43 6.646-4.81Zm18.798 24.747c.063-.981.411-1.994.19-2.817-1.298-4.367-2.722-8.67-4.083-13.006-.98-3.07-3.323-4.525-6.266-5.032-3.322-.538-6.55-.379-9.462 1.741-2.816 2.057-5.475 4.24-7.12 7.373-.348.697-.696 1.393-.886 2.152-.538 2.279-.95 4.621-1.456 6.899-.57 2.69.475 4.241 3.323 4.399 2.975.19 5.981.126 8.956.126 1.582 0 3.133-.189 4.715-.126 3.924.19 7.817-.095 12.089-1.709Zm-20.982-47.184c-3.038 6.044-3.07 6.456-.98 13.038.284.886.474 1.867.949 2.658 2.626 4.557 5.348 5.76 9.683 4.621 5-1.33 8.64-5.665 8.228-10.792-.443-5.379-2.5-10.095-7.816-12.69-1.772-.854-3.291-.791-4.905.159a307.94 307.94 0 0 1-5.159 3.006Zm207.186 23.924c-.506.063-1.107.158-1.709.158-2.848.095-5.696.19-8.544.254-2.342.063-4.715.284-7.057.031-3.481-.348-6.931-.506-10.38.095-.475.095-.981.095-1.487.127-1.108.031-1.488-.696-1.709-1.836.474-.221 1.012-.633 1.55-.664 1.361-.095 2.754-.253 4.083.031 3.354.697 6.645.348 10 .127 4.082-.285 8.164-.411 12.247-.57.728-.031 1.487.095 2.183.285.886.285 1.14.95.823 1.962Zm-145.856 0c-.506.063-1.107.158-1.709.158-2.848.095-5.696.19-8.544.254-2.342.063-4.715.284-7.057.031-3.481-.348-6.93-.506-10.38.095-.475.095-.981.095-1.487.127-1.108.031-1.488-.696-1.71-1.836.475-.221 1.014-.633 1.551-.664 1.361-.095 2.754-.253 4.083.031 3.354.697 6.645.348 10 .127 4.082-.285 8.164-.411 12.247-.57.728-.031 1.487.095 2.183.285.886.285 1.108.95.823 1.962Zm100.349 76.457a17.947 17.947 0 0 1-.981-1.393 900.993 900.993 0 0 1-4.43-7.31c-1.203-2.025-2.563-3.987-3.513-6.108-1.392-3.196-2.974-6.265-5.19-8.987-.316-.38-.569-.823-.822-1.234-.57-.95-.127-1.646.759-2.374.443.317 1.044.57 1.329 1.013.76 1.139 1.582 2.278 1.994 3.576 1.044 3.26 2.975 5.981 4.81 8.766 2.247 3.418 4.399 6.899 6.519 10.38.38.633.665 1.329.823 2.057.19.854-.285 1.392-1.298 1.614ZM100.26 83.376a17.656 17.656 0 0 1-.981-1.392 898.431 898.431 0 0 1-4.43-7.31c-1.203-2.026-2.564-3.988-3.513-6.108-1.393-3.196-2.975-6.266-5.19-8.987-.317-.38-.57-.823-.823-1.235-.57-.949-.095-1.645.76-2.373.442.316 1.044.57 1.329 1.013.76 1.139 1.582 2.278 1.993 3.576 1.045 3.26 2.975 5.98 4.81 8.766 2.247 3.417 4.4 6.898 6.52 10.38a6.83 6.83 0 0 1 .822 2.056c.19.823-.253 1.361-1.297 1.614ZM81.779 207.523a22.96 22.96 0 0 1 .76-1.519 544.301 544.301 0 0 1 4.303-7.373c1.203-2.026 2.278-4.146 3.703-5.981 2.151-2.754 4.082-5.602 5.411-8.861.19-.443.443-.886.696-1.329.57-.95 1.393-.886 2.469-.475-.064.538 0 1.171-.254 1.646-.633 1.202-1.265 2.468-2.183 3.449-2.374 2.468-3.83 5.443-5.412 8.418-1.93 3.607-3.987 7.152-6.012 10.696-.349.633-.886 1.203-1.424 1.709-.665.57-1.361.411-2.057-.38Zm77.374-123.641c.221-.474.475-1.012.759-1.519 1.424-2.468 2.848-4.936 4.304-7.373 1.203-2.025 2.279-4.146 3.703-5.981 2.152-2.753 4.082-5.601 5.411-8.861.19-.443.443-.886.696-1.33.57-.948 1.393-.885 2.469-.474-.064.538 0 1.171-.253 1.646-.633 1.202-1.266 2.468-2.184 3.45-2.342 2.468-3.829 5.442-5.411 8.417-1.931 3.608-3.988 7.152-6.013 10.696-.348.633-.886 1.203-1.424 1.71-.665.569-1.361.41-2.057-.38Z" fill="#070A0B"/></svg>