<svg width="373" height="256" fill="none" xmlns="http://www.w3.org/2000/svg"><path d="M227.636 238.973c-2.573 7.282-8.432 9.965-15.276 11.169-3.012.548-6.023 1.26-9.199.876-.657-.109-1.478.329-2.135.657a7.433 7.433 0 0 0-1.861 1.369c-2.957 2.902-6.571 3.176-10.349 2.847-1.533-.109-3.121-.492-4.599-.383-3.121.219-5.749-.766-8.158-2.628-2.519-1.971-5.53-3.45-7.611-6.023-.438-.547-1.259-.821-1.971-1.314-.876.493-1.697.876-2.409 1.424-1.424 1.04-2.847 1.752-4.709 1.697-1.04 0-2.135.383-3.175.657-5.147 1.369-10.075-1.697-11.006-6.954-.219-1.368-.274-2.737-.438-4.38-2.354-.766-4.818-.547-7.227-.876-1.971-.274-3.942-.602-5.804-1.424-2.683-1.204-4.764-2.847-6.078-5.475-.712-1.369-1.423-2.737-2.245-4.325-1.697-.493-3.559-1.15-5.475-1.643-3.449-.876-6.023-3.066-8.213-5.749-.219-.219-.328-.547-.547-.766-2.355-2.629-4.162-5.421-2.793-9.363-1.15-.219-2.026-.438-2.902-.603-3.34-.711-5.803-2.792-7.83-5.42-1.204-1.643-1.697-3.34-1.423-5.585.493-3.833 1.205-7.556 2.738-11.115 1.095-2.573 2.245-5.147 4.106-7.227 2.409-2.574 2.355-5.092.438-7.939-1.369-2.026-2.573-4.216-3.723-6.406-3.833-7.283-8.432-14.072-12.867-20.916-.602-.931-1.204-1.807-1.916-2.628a4275.582 4275.582 0 0 0-8.925-9.746c-.821-.055-1.862-.11-3.34-.164-.712.657-1.533 1.642-2.519 2.354-3.832 2.683-7.555 2.354-10.84-1.04-3.888-3.997-7.666-8.104-11.499-12.101-1.697-1.807-3.504-3.504-5.31-5.201-.439-.384-1.041-.603-1.753-.986-3.887 2.464-7.939 1.478-12.155.438-3.614-4.106-7.227-8.322-11.005-12.374-3.23-3.504-6.735-6.844-10.02-10.294-1.588-1.697-3.012-3.558-4.545-5.256-1.15-1.314-1.314-2.573-.766-4.27 1.15-3.56 3.011-6.735 4.818-9.966a6.461 6.461 0 0 1 1.478-1.752c1.479-1.204 2.245-2.902 3.286-4.435 2.3-3.45 4.873-6.734 7.5-9.965 1.753-2.135 3.724-4.106 5.695-6.077C29.65 43.176 36.165 36.55 42.954 30.2c7.83-7.282 16.317-13.689 25.953-18.507 1.917-.985 3.833-2.08 5.695-3.176 5.256-3.066 10.786-5.31 16.864-6.077.876-.11 1.752-.438 2.573-.602 2.464.985 4.161 2.683 6.023 4.38 5.311 4.982 9.855 10.677 14.947 15.878.767.767 1.533 1.588 2.026 2.519 1.752 3.504 4.271 6.46 7.282 8.925 2.026 1.697 2.355 3.504 1.369 5.749-.657 1.587-1.314 3.12-1.971 4.708-.328.822-.712 1.698-1.095 2.683 1.04 1.205 2.026 2.41 3.066 3.56 3.833 4.051 7.666 8.048 11.498 12.1 1.752 1.861 2.081 4.16 1.15 6.46s-2.081 4.49-3.176 6.735c.165.438.165.93.438 1.26 4.545 4.763 9.746 8.596 16.207 10.293 7.063 1.862 6.899 1.588 13.579-1.424 7.446-3.34 14.838-7.063 23.27-7.5 4.435-.22 8.87-.822 13.36.109 2.518.493 5.201.547 7.72 1.204.712.22 1.533.22 2.299.11 5.476-.931 11.006-1.807 16.153-4.107a1126.49 1126.49 0 0 0 11.826-5.365c.931-.438 1.752-1.15 2.628-1.753-1.04-3.723-1.916-7.282-3.011-10.786-.712-2.3-.438-4.052 1.369-5.804 3.668-3.504 7.172-7.227 10.841-11.005-.055-.438 0-1.15-.329-1.588-1.916-2.847-1.095-6.023-.985-9.034.054-2.08 1.423-3.723 3.121-4.928 5.749-4.106 11.553-8.268 17.356-12.32 2.519-1.751 5.202-3.284 7.775-5.037 3.231-2.135 6.406-4.27 9.527-6.625 1.369-1.04 2.683-1.423 4.271-1.15 2.519.439 4.599 1.588 6.68 3.067 8.541 5.913 16.316 12.757 23.763 19.985 3.23 3.12 6.515 6.132 9.746 9.307 9.636 9.473 18.068 19.876 25.022 31.538 4.161 7.063 8.377 14.127 11.772 21.573 1.04 2.19 1.697 4.6 2.354 6.953.383 1.315-.438 2.41-1.259 3.34-1.698 1.972-3.504 3.888-5.311 5.804-1.369 1.479-2.738 2.902-4.107 4.326-.766.766-1.423 1.642-2.245 2.354-4.708 3.997-8.924 8.487-13.524 12.593-2.628 2.355-5.749 4.107-8.815 5.968-2.409 1.424-5.092 1.205-7.61.165-.986-.438-1.807-1.041-2.848-1.698-5.037 3.942-9.691 8.268-14.838 12.046-2.464-.767-4.928-1.259-7.118-2.354-2.135-1.096-3.942-2.738-5.803-4.107-2.464 1.04-3.614 2.902-4.873 4.654-3.45 4.764-6.68 9.637-9.582 14.783-3.942 7.009-7.337 14.236-10.349 21.737-1.861 4.6-4.38 8.87-7.336 12.867-.822 1.095-1.643 2.245-2.519 3.34-.986 1.205-1.259 2.409-.712 3.888.11.273.164.602.329.876 2.737 6.57 1.204 12.702-2.081 18.616-.383.657-.876 1.314-1.15 2.026-1.369 3.504-3.997 5.803-7.063 7.72-2.245 1.369-4.49 2.737-5.201 5.585-.11.547-.712.985-1.15 1.423-3.778 3.723-8.049 6.735-12.648 9.363-.931.547-2.026.766-3.066.985-1.205-.054-2.3 0-3.395.165ZM22.806 83.858c.383-.603.766-1.15 1.094-1.753 1.862-2.847 3.833-5.584 5.585-8.486 3.011-4.819 5.913-9.691 8.87-14.51-5.147 5.147-9.308 11.006-13.852 16.59-.384.603-.712 1.205-1.095 1.807a44.26 44.26 0 0 0-1.15 1.698c-.384.602-.712 1.204-1.095 1.861-.384.876-.822 1.752-1.205 2.573-.164.165-.274.329-.328.384a2.12 2.12 0 0 0 .273-.438c.384-.876.822-1.752 1.205-2.574.383-.602.712-1.204 1.095-1.861.383-.548.767-1.15 1.095-1.698.383-.602.712-1.204 1.095-1.806 1.752.602 1.916.82 1.424 1.97a373.496 373.496 0 0 1-1.971 4.545c-.274.603-.657 1.15-1.04 1.698-.056.109-.11.219-.22.273-.054.055-.054.165-.11.22l.33-.493Zm2.682 11.607a1.13 1.13 0 0 0-.328.22c-.055.054-.055.163-.11.273.11-.164.274-.329.438-.493Zm-12.1-20.915c.11-.055.274-.055.328-.165.055-.054.11-.164.165-.219-.11.11-.274.274-.493.384-.055.219-.164.438-.22.492.056-.11.165-.328.22-.492Zm26.5 6.296c.383-.602.767-1.15 1.095-1.752.11-.219.22-.383.329-.602-.11.219-.164.438-.274.657-.383.602-.767 1.204-1.15 1.697-.11.11-.274.164-.328.274-.055.055-.055.219-.055.328.055-.164.219-.383.383-.602ZM7.53 77.726l1.15-1.643c.055-.11.11-.22.164-.384-.054.11-.11.274-.11.384-.382.602-.766 1.15-1.204 1.642a.66.66 0 0 1-.274.274c-.054.055-.054.164-.054.274.11-.164.219-.383.328-.548Zm17.193-13.141c-.384.602-.712 1.15-1.096 1.752-2.409 2.025-2.409 2.025-3.01 4.818 1.477-1.698 2.408-3.176 3.01-4.873.384-.602.712-1.205 1.096-1.752.11-.055.273-.11.328-.22.055-.054.055-.218.11-.273-.165.164-.274.383-.438.547Zm9.8 4.708c-.11.055-.273.11-.383.22-.055.054-.055.218-.11.273.165-.164.33-.383.493-.493.329-.657.657-1.26 1.04-1.916.494-.329 1.096-.602 1.479-1.04 3.614-4.162 6.899-8.542 10.348-13.086-2.135-.055-3.504.766-4.435 2.354-2.409 3.942-4.873 7.884-7.337 11.827-.383.602-.711 1.204-1.095 1.861Zm298.076-33.618c-.22-.11-.439-.22-.712-.329.273.11.547.22.712.329.109.219.109.547.218.821.055.11.384.11.603.164-.055-.164-.055-.328-.164-.383-.165-.219-.438-.383-.657-.602ZM73.123 17.99c-1.204.438-1.861 1.314-2.135 2.573-.493.383-.986.712-1.862 1.369 1.533.055 1.588-.767 1.807-1.424a48.094 48.094 0 0 1 2.19-2.518Zm6.735-2.136-1.479 1.15c.165.165.33.274.493.438.329-.547.603-1.095.931-1.642.11-.055.274-.11.383-.22.055-.054.055-.218.055-.328-.11.164-.219.383-.383.602Zm182.218 5.476c-.384.493-.767.985-1.095 1.478.164.11.383.219.547.329.164-.603.383-1.26.548-1.862.164-.055.273-.11.438-.164-.165.11-.274.164-.438.219ZM22.258 60.478c.492-.383.985-.712 1.478-1.095-.164-.164-.329-.274-.438-.438-.383.547-.712 1.04-1.04 1.533a.79.79 0 0 1-.11.383c0-.11.055-.273.11-.383ZM86.81 20.125c.493-.383 1.04-.712 1.862-1.314-1.588-.164-1.478.821-1.807 1.369-.328.219-.712.438-1.04.657-.055.055-.055.274-.11.383.22 0 .658.11.658.055.219-.329.328-.767.437-1.15ZM319.183 39.07c.164.219.329.438.548.657.109.11.219.11.383.164-.055-.164-.055-.493-.164-.548-.219-.164-.548-.164-.822-.273-.328-.767-.602-1.479-1.095-2.683-.383 1.697.767 1.97 1.15 2.683Zm22.065 32.851c.11.657-.219 1.533 1.369 1.971-.657-.876-1.04-1.368-1.423-1.916 0-1.04-.055-1.971-1.205-2.628-.657 1.588.164 2.19 1.259 2.573ZM106.687 27.626c.055.274 0 .548.109.822.055.11.329.164.493.219-.055-.11 0-.274-.109-.384-.165-.219-.384-.383-.548-.602-.657-.767-.876-2.08-2.902-1.916a88.864 88.864 0 0 0 2.957 1.861Zm191.635 34.55.164.82c.055.11.165.22.274.33.055-.22.219-.494.11-.603-.165-.22-.438-.329-.657-.493 0-1.26-.438-2.19-1.917-3.066.274 1.588.876 2.464 2.026 3.011Zm-24.694-24.749c0-1.26-.602-2.19-1.587-2.957-.384-2.628-1.095-5.092-3.778-6.68-1.752.822-3.669 1.315-5.585.329-.11-.055-.548.329-.602.602-.11.22 0 .712.109.822.767.383 1.643.657 2.464.93.931.329.986 2.136 2.519 1.534.438-.657.876-1.37 1.368-2.081a275.437 275.437 0 0 1 3.614 4.435c.055 1.26.219 2.464 1.478 3.066.712 1.643.712 1.643 2.629 3.066-1.314-1.478-1.971-2.245-2.629-3.066Zm50.264 40.244c0 .164-.055.273 0 .438 0 .109.109.219.164.273-.055-.219-.164-.438-.219-.657-.602-.876-1.15-1.807-1.807-2.628-.766-.876-1.314-.274-1.752.438-.766-.766-1.588-1.423-2.19-2.3a83.688 83.688 0 0 1-3.669-5.31c-1.368-2.026-2.792-4.052-3.285-6.57-.328-1.48-1.149-2.793-2.463-3.779-1.15 2.19-.822 4.052.602 5.968 3.394 4.6 6.679 9.254 10.019 13.907.219.329.657.493 1.205.877-.055-1.096-.11-1.972-.164-2.848 1.15.712 2.354 1.479 3.559 2.19ZM89.112 6.437c-1.205-.164-2.465-.438-3.998.657 1.916.821 2.847-.329 3.997-.767.164 0 .329.055.438 0 .11-.054.164-.164.22-.273a4.083 4.083 0 0 1-.658.383ZM324.11 36.77c-.11-.11-.164-.219-.274-.329-.055-.054-.219-.054-.274-.054.219.11.438.219.602.328.22 1.479 1.041 1.971 2.519 1.698-.438-1.588-1.533-1.588-2.573-1.643ZM65.622 65.625c2.3-1.15 2.3-1.15 2.902-2.738-.93.876-1.916 1.862-2.902 2.738 0 .164-.11.274-.164.383.055-.11.11-.219.164-.383Zm-44.733-9.91c1.861-.986 3.34-2.3 4.161-4.216.493-.384.986-.822 1.862-1.479-1.533.055-1.698.767-1.862 1.479-2.08.766-3.395 2.244-4.161 4.215-1.369.986-1.369.986-1.643 2.52.548-.822 1.095-1.643 1.643-2.52Zm2.19 34.713c1.314-1.205 2.354-2.519 2.464-4.38-1.479 1.095-2.136 2.683-2.41 4.435-.109.219-.273.383-.382.602l.328-.657Zm280.007-67.894c.054.274.054.603.164.876 0 .055.219.11.328.165-.164-.384-.328-.657-.492-1.04.438-.658.711-1.37 0-1.972-.657-.547-1.424-.93-2.574-1.697.548 1.97 1.369 3.011 2.574 3.668ZM29.43 92.016c3.012-3.23 3.395-3.997 3.23-6.625-.93 1.587-1.697 2.792-2.354 4.106-.383.821-.547 1.698-.82 2.573-.11.22-.22.439-.275.658a5.08 5.08 0 0 0 .22-.712Zm279.843-66.032c-.384-1.643-1.095-3.067-2.464-4.435-.11 2.245-.11 2.245 2.464 4.435.821 2.792 2.902 4.763 4.873 6.68.109.109.711-.329 1.095-.548.055-.11.055-.164.109-.274.055.11.11.274.165.383-.11-.054-.219-.054-.274-.109-.876-.767-1.862-1.478-2.683-2.354-1.15-1.205-2.19-2.519-3.285-3.778ZM71.59 32.609c2.792-1.314 3.997-4.107 5.859-6.297.328-.383.821-.93.164-1.642-.329.273-.767.492-1.04.82-1.643 2.355-3.285 4.764-4.928 7.119-.11.11-.22.164-.329.274-.054.054-.054.164-.11.273.165-.164.275-.328.384-.547Zm-29.676 17.74c.657-1.15 1.369-2.355 1.971-3.505.602-1.095 1.752-1.97 1.698-3.887-.767.602-1.26.986-1.698 1.314-1.478 1.205-2.683 2.574-1.861 4.709.219.383 0 .93-.11 1.369-.493.383-.93.766-1.424 1.15.165.164.329.273.493.438.329-.548.657-1.095.931-1.588ZM76.408 32.28c-2.683 2.026-4.216 4.819-5.475 7.775-.11.055-.274.11-.328.22-.055.054-.055.218-.11.328.11-.22.274-.384.383-.603 2.847-1.861 5.366-3.996 5.421-7.775a1.12 1.12 0 0 0 .328-.218c.055-.055.055-.165.11-.274-.11.219-.22.383-.329.547Zm240.968-2.792c.11.274.11.602.274.821.109.164.438.164.712.22-.055-.22-.11-.548-.274-.713-.219-.164-.548-.219-.821-.273-1.095-3.395-3.669-5.75-5.914-8.378-.328-.438-1.095-.492-1.642-.766-1.314-1.26-2.464-2.793-4.052-3.723-4.983-2.957-8.596-7.282-12.374-11.498a16.156 16.156 0 0 0-1.424-1.37c-2.354.877-2.245 2.684-2.464 4.326-.164.548-.657 1.314-.438 1.643.876 1.423 1.862 2.792 3.067 3.997 1.149 1.204 2.244 2.683 4.708 3.23-1.588-2.026-2.792-3.614-4.051-5.147-1.041-1.259-2.191-2.518-3.286-3.723.657-.766 1.26-1.588 1.972-2.464.438.438.876.712.985 1.095.767 2.464 2.409 4.271 4.326 5.804 2.463 2.026 5.256 3.669 7.72 5.64 1.588 1.26 3.394 1.97 5.311 2.3 2.135 3.34 4.49 6.46 7.665 8.979Zm32.907 54.589c-.657-1.698-.657-1.698-2.519-3.067a123.866 123.866 0 0 1 2.519 3.067c0 .328-.055.657.109.93a460.722 460.722 0 0 0 4.819 8.925c.054.11.492-.055 1.368-.164-2.409-3.285-3.285-7.118-6.296-9.691ZM57.847 49.035c3.504-2.519 6.023-5.859 8.213-9.527.055-.055-.328-.329-.602-.657-2.847 3.175-5.585 6.406-7.556 10.238l-.274.274c-.055.055-.055.164-.11.274.165-.22.274-.438.33-.602Zm6.242 12.757c3.066-2.135 6.899-6.406 8.213-9.144-2.3.822-5.64 4.654-8.158 9.199-.11.219-.22.438-.274.657.11-.22.164-.493.219-.712Zm-.328-5.64c.82-.657 1.806-1.204 2.518-1.97 2.464-2.793 4.709-5.695 6.078-9.254.11-.11.219-.164.273-.274.055-.054.055-.164.055-.273-.11.219-.219.438-.328.602-2.683 2.245-6.79 7.665-8.596 11.224-.329.274-.712.548-1.04.822-.11.11.054.383.054.602.11-.11.274-.164.383-.274.22-.383.383-.821.602-1.204Zm297.636 28.965c1.479 5.147 1.972 6.132 4.654 8.596.055-.11.22-.274.22-.328-1.15-2.355-2.355-4.654-3.559-7.009-.219-.383-.603-.657-.931-.985-.11-.11-.274-.165-.384-.22-1.314-3.668-4.051-6.296-7.063-9.69 1.096 3.34 3.34 7.774 4.6 8.705.602.493 1.587.602 2.463.93Zm-27.923-7.392c.054.22.164.493.218.712.165-.219.329-.383.493-.602.548.383 1.095.821 2.245 1.642-1.15-3.34-1.861-5.968-2.902-8.486-.602-1.479-1.697-2.793-3.887-4.271.712 1.697.876 2.573 1.369 3.23 1.642 2.355 2.409 4.983 2.464 7.775Zm2.244-36.082c-.054-.274-.054-.547-.164-.767-.055-.109-.109-.218-.219-.328-.055.164-.219.383-.164.493.109.219.383.383.547.547.11.438.165.931.384 1.314a663.08 663.08 0 0 0 8.541 13.032c.164.273.712.273 1.259.438-1.642-3.778-6.515-10.841-10.184-14.729ZM52.865 42.957c.985-.712 2.08-1.314 2.847-2.19 2.847-3.011 5.53-6.132 8.267-9.253.274-.274.384-.712 1.04-2.026-5.255 4.38-9.362 8.322-12.154 13.524-.11.11-.274.164-.384.274-.054.054-.054.219-.054.328.219-.219.328-.438.438-.657Zm6.241 12.758c3.23-2.464 7.009-7.064 8.432-10.24-.766 0-1.697-.328-2.08 0-.822.658-1.314 1.643-1.971 2.52-.931 1.204-1.314 2.847-3.012 3.285l-.219-.22c.055-.054.164-.054.22-.109v.329c-.384 1.478-.877 2.956-1.37 4.434ZM44.16 66.5c-.767.712-1.697 1.314-2.3 2.135-1.533 1.917-2.902 3.942-4.49 5.859-1.861 2.3-3.34 4.709-3.175 7.775-.164.164-.329.328-.329.383 0-.055.165-.219.274-.438 2.628-3.888 5.311-7.775 7.885-11.717.82-1.26 1.368-2.683 2.025-4.052.876-.493 1.698-.985 1.588-2.3-1.314.329-1.369 1.315-1.478 2.355Zm9.034-16.974c3.723-3.175 9.253-9.746 11.17-13.086-1.643-.054-2.793 1.15-3.833 2.574-1.533 2.08-3.285 4.052-4.818 6.187-.986 1.369-1.643 2.902-2.464 4.38-.493.383-.986.767-1.478 1.205.164.11.328.273.492.383.329-.547.603-1.095.931-1.642Zm-7.556 19.766c.493-.383 1.04-.712 1.424-1.15 2.573-3.23 5.201-6.406 7.665-9.746 1.095-1.423 1.862-3.12 2.793-4.708.11-.22.219-.493.328-.712l-.328.657c-.877.821-1.807 1.588-2.628 2.464-.767.766-1.315 1.697-2.136 2.354-3.45 2.902-5.64 6.625-7.008 10.896-.11.219-.274.438-.384.602.11-.164.22-.383.274-.657Zm3.56-26.664c.492-.329 1.149-.548 1.532-.986a472.174 472.174 0 0 0 8.76-9.472c1.205-1.314 2.19-2.847 3.067-5.092-.93.492-1.369.602-1.588.876-3.45 3.942-6.844 7.884-10.184 11.936-.657.821-.986 1.861-1.478 2.792-.493.384-.931.822-1.424 1.205.164.11.274.219.438.328.274-.547.548-1.095.876-1.587ZM356.47 88.293c.109.219-.055 0 0 0 .657-1.205 1.314-2.41.219-3.778-2.3-2.902-4.545-5.804-6.844-8.651a41.581 41.581 0 0 0-2.026-2.355c.164 2.3 1.204 4.107 2.354 5.804 2.026 3.011 3.504 6.46 6.297 8.98ZM52.7 30.254c.22-1.204 1.643-2.135.876-4.16-.93 1.149-1.752 1.86-2.19 2.792-.438.82.22 1.423 1.095 1.642-2.026 2.847-4.051 5.694-7.063 7.501-.876-.711-1.533-1.259-2.409-1.97-.767 1.04-1.916 1.86-1.916 2.682 0 1.424-.11 2.683-.767 3.942-.11.165.164.657.329.767.383.164.876.328 1.204.164.548-.219.986-.712 1.424-1.15 4.6-4.544 9.144-9.089 13.688-13.688.274-.274.274-.767.548-1.588-.931.438-1.533.548-1.917.876-.82.931-1.587 1.971-2.901 2.19Zm271.575 33.564c-1.478-.438-2.081-1.752-2.902-2.847-1.259-1.752-2.409-3.56-3.614-5.366-.328-.493-.766-1.04-1.259-1.314-.274-.164-.876.055-1.259.219-.219.11-.384.493-.384.767.055.438.274.876.493 1.259 3.888 5.366 7.72 10.731 11.663 16.042.438.603.876 1.698 2.08 1.424-.109-1.971-1.423-3.34-2.299-4.928-.931-1.752-2.574-3.12-2.629-5.31.274.054.603.163.877.163.219 0 .438-.218.602-.328-.164-.219-.493-.602-.548-.548-.273.22-.547.493-.821.767Zm8.487-1.04c-.986-.931-2.136-1.752-2.902-2.793-2.3-3.066-4.49-6.296-6.735-9.417-.493-.712-.931-1.643-2.135-1.424-1.15 1.15-.493 2.3.219 3.285 2.464 3.34 4.928 6.68 7.501 9.965 1.697 2.19 3.504 4.271 5.366 6.352.547.602 1.259.821 2.026-.22-.657-.93-1.479-1.86-2.081-2.901-.548-.931-.876-1.916-1.259-2.847.602.11 1.204.328 2.354.602-3.614-5.42-6.899-10.458-10.184-15.44-.274-.384-.602-.712-.876-1.04a.59.59 0 0 0-.383-.165c-.11 0-.219.11-.603.22.384.82.603 1.696 1.095 2.353 2.3 3.286 4.6 6.516 6.954 9.801.712 1.15 1.862 2.08 1.643 3.669Zm-14.181 6.351c1.369 1.424 2.792 2.847 4.161 4.27 1.314 1.424 2.573 2.903 3.833 4.381-1.095-4.544-3.888-7.94-6.68-11.389-2.847-3.504-4.162-8.158-7.939-11.224-.11 3.942-.11 3.942 1.806 6.46.767.986 1.424 2.027 2.191 3.012.985 1.26 1.752 2.519 1.916 4.162.055.492.055 1.423.164 1.423.931.11.493-.602.548-1.095Zm-46.924-41.12c.165-.547.384-1.095.548-1.642 0-.11-.164-.329-.219-.329-.219.055-.657.22-.657.274.109.548.274 1.095.383 1.697 2.464 3.122 5.475 5.86 6.735 9.801 3.997 5.257 7.994 10.568 12.045 15.824.438.547 1.15 1.095 2.191.164-.329-.602-.658-1.26-1.096-1.861-3.887-5.366-7.72-10.732-11.662-16.043-2.299-3.121-4.654-6.187-8.268-7.884ZM302.1 52.266c0 .986.164 1.862 1.971 2.519-.985-1.205-1.533-1.807-2.026-2.464-.438-.657-.821-1.314-1.259-1.916-3.395-4.764-6.844-9.528-10.129-14.346-.767-1.095-1.205-2.464-1.698-3.723-.054-.164.165-.602.384-.767.219-.109.657-.164.821 0 .438.384.821.931 1.15 1.37 4.38 5.584 8.706 11.224 13.086 16.754.602.766 1.368 1.478 2.08 2.19.329-.876.11-1.369-.164-1.807a373.376 373.376 0 0 0-4.161-5.585c-3.504-4.709-7.228-9.308-9.746-14.619-1.643-3.45-3.669-6.351-7.063-8.267-1.041-.603-1.807-1.643-2.683-2.464-.602-.548.766-1.917-.822-2.136-.711 1.04-.821 2.08-.054 3.012.821 1.095 1.807 2.08 2.792 3.066 1.314 1.314 2.738 2.518 4.052 3.778.438.438.712.985.931 1.588.109.219-.055.602-.274.766-.164.164-.602.329-.821.274-.712-.329-1.424-.657-1.972-1.15-1.204-1.204-2.244-2.519-3.394-3.778-1.588-1.807-1.643-1.752-4.216-2.902.109.274.164.602.328.876 1.26 2.41 3.559 4.271 3.614 7.337 0 .712.986 1.807 1.752 2.026 2.519.712 3.395 2.957 4.764 4.764 3.449 4.544 6.844 9.143 10.348 13.633.547.821 1.588 1.314 2.409 1.971ZM107.453 38.96c-7.5 3.778-14.564 8.158-21.299 13.086-4.106 3.011-8.158 6.132-11.936 9.582-3.394 3.12-6.57 6.515-10.403 9.144-.876.602-1.588 1.423-2.354 2.244-4.709 4.873-9.418 9.801-14.126 14.674-.22.22-.438.438-.712.603-4.873 3.668-8.213 8.76-12.046 13.414-.164.219-.11.602-.219 1.095.876 2.19 2.902 3.723 4.545 5.53 2.792 3.066 5.694 6.078 8.486 9.199 2.081 2.299 4.052 4.654 6.133 6.953 1.204 1.369 2.464 2.683 4.16 3.504.494-.492.986-.711 1.15-1.095 2.081-4.544 5.366-8.267 7.995-12.483 3.559-5.695 8.322-10.349 13.25-14.784 3.778-3.394 7.556-6.844 11.389-10.238.711-.603 1.368-1.315 2.19-1.698 3.723-1.752 6.241-5.037 9.527-7.337 3.285-2.3 6.734-4.325 10.074-6.625 4.983-3.394 9.637-7.227 15.167-9.746 1.314-.602 3.011-.821 3.832-2.518-.711-.931-1.314-1.807-2.026-2.574a5198.734 5198.734 0 0 0-17.137-18.233c-.438-.438-.931-.82-1.424-1.204-1.314-1.095-2.792-1.26-4.325-.493h.109Zm29.622 79.392c.876.219 1.806.383 2.737.602-.109.274-.274.493-.328.712-.055.109.055.274.109.657 1.479-.055 3.012-.109 4.49-.274 1.205-.109 2.464-.493 3.668-.438 4.435.055 8.542-1.259 12.594-2.792 1.314-.493 2.628-.986 3.942-1.369 3.887-1.15 7.83-1.752 11.772-.219 1.095.438 2.299.767 3.613.274-.492-.438-.821-.767-1.642-1.533 2.299.438 3.997.766 5.804 1.095.273 1.916 1.204 3.066 3.23 3.394 2.902.493 5.749 1.26 8.596 1.972 6.954 1.806 13.743 1.587 20.368-1.479a14.503 14.503 0 0 1 2.574-.931c.219-.054.547.219 1.04.493-.164 1.095-.383 2.245-.547 3.231-2.683 1.368-5.311 1.149-7.885 1.423-2.628.329-5.147.876-7.829.712-2.574-.164-5.147-.274-7.721-.438.055.602-.055.931.11 1.15 4.325 5.639 8.596 11.334 12.976 16.918 8.104 10.349 16.262 20.642 24.42 30.936 4.599 5.858 9.363 11.498 14.674 16.754 1.642 1.643 3.285 3.285 5.42 4.107 2.081-.384 3.395-1.807 4.709-3.066 4.38-4.381 8.158-9.308 11.17-14.674 1.533-2.683 2.573-5.64 3.723-8.487 2.738-6.735 6.132-13.141 9.418-19.656 4.161-8.158 9.253-15.714 15.495-22.449 1.752-1.916 3.777-3.614 5.639-5.421-.109-1.806-1.095-3.23-2.081-4.599-7.008-9.417-14.18-18.725-22.996-26.61-3.668-3.285-7.118-6.844-10.567-10.403-3.23-3.34-6.242-6.899-9.363-10.293-1.423-1.588-2.902-3.176-5.42-3.614-2.738 3.011-6.187 4.982-9.801 6.844-3.285 1.643-6.57 3.395-9.856 5.092-1.095.548-2.299.93-3.449 1.424-5.421 2.3-11.115 3.504-17.028 4.106-5.092.548-10.13.712-15.112-.821-1.04-.329-2.135-.383-3.23-.438-8.268-.383-15.934 1.478-23.106 5.64-7.775 4.49-15.495 8.979-23.27 13.414-.821.438-1.643.821-2.519 1.15-3.887 1.588-7.72 3.121-11.06 5.749-1.095.821-2.464 1.314-3.668 1.971-.657.383-1.424.657-1.972 1.15-.821.711-1.368 1.697-1.149 2.902.492 3.23 5.092 6.734 8.541 6.46.219 0 .493-.219.767-.328Zm17.411-27.377c-3.449-1.259-6.187-2.244-8.925-3.34-1.149-.438-2.409-.82-3.285-1.587a308.565 308.565 0 0 1-9.855-9.144c-1.971-1.916-3.778-4.052-5.749-6.023-1.369-1.424-2.464-1.533-4.107-.493-1.697 1.095-3.285 2.3-4.982 3.395-3.34 2.19-7.009 4.052-10.075 6.57-7.446 6.023-14.783 12.21-21.846 18.671-5.257 4.764-10.13 9.965-15.112 15.057-1.26 1.314-2.519 2.683-3.011 4.654.602.767 1.095 1.533 1.752 2.19 7.227 7.611 14.29 15.441 19.765 24.475 2.902 4.763 5.804 9.472 8.76 14.181 2.027 3.285 4.053 6.57 6.133 9.801.438.711 1.314 1.095 2.19 1.807.986-1.096 1.698-2.136 2.628-2.902 1.479-1.314 2.957-2.793 4.709-3.614 2.519-1.15 4.983-.438 7.501.821 3.669 1.752 5.914 4.326 6.406 8.377.11.657.603 1.314.986 2.081.931-.383 1.697-.657 2.354-.931 1.369-.602 2.902-.657 4.052 0 2.902 1.698 6.023 3.231 7.228 6.79.383 1.149 1.094 2.244 1.423 3.394.328 1.26.383 2.628.602 4.052 1.369-.219 2.464-.767 3.45-.493 3.121.767 6.242 1.698 9.253 2.847 1.643.603 2.519 2.081 2.957 3.888.602 2.573.821 5.092 0 7.939 1.423-.274 2.409-.493 3.449-.602 1.095-.11 2.135-.11 3.23-.11 3.121 0 4.381.931 5.585 3.888 1.15 2.902 1.752 5.968 1.588 9.089-.274 5.42-.931 10.786-2.738 15.933-.93 2.792-1.752 5.585-2.628 8.432-.547 1.807-.273 3.394 1.26 4.599 1.697 1.369 3.449 2.628 5.092 4.052 1.971 1.697 4.216 2.354 6.734 2.847 4.49.821 8.925-.055 13.415.109 1.752.055 3.175-.985 4.161-2.628-.274-.602-.438-1.259-.876-1.642-4.271-4.216-7.665-9.363-12.703-12.813-2.683-1.861-4.216-4.489-5.366-7.391-.328-.822.11-1.479 1.096-1.533.164.054.328.109.438.219 3.066 4.051 6.241 7.994 10.129 11.334 2.902 2.518 5.475 5.475 7.994 8.322 2.299 2.628 5.311 3.23 8.432 2.683 4.928-.876 9.527-2.628 13.414-5.913a10.506 10.506 0 0 0 2.355-2.793c.711-1.314.657-2.683-.548-3.833-3.559-3.394-6.954-7.008-10.786-10.129a139.331 139.331 0 0 1-12.812-11.936c-.603-.602-.876-1.588-1.15-2.464-.219-.766 0-1.533 1.423-1.697 1.095 1.15 2.574 2.354 3.614 3.778 1.643 2.299 3.778 4.051 5.804 5.913 4.709 4.271 9.253 8.651 13.907 12.922 1.04.931 2.081 1.916 3.23 2.573 2.41 1.424 4.928 1.698 7.447.11 3.778-2.409 7.501-4.928 10.403-8.377.547-.603.712-1.534.985-2.081-2.901-1.752-5.858-2.957-8.103-4.928-7.173-6.351-14.071-12.976-20.587-20.094-.493-.548-.821-1.205-1.424-2.136.712-.328 1.205-.711 1.752-.711.384 0 .822.383 1.15.711 4.764 4.435 9.472 8.87 14.181 13.305.548.548 1.041 1.15 1.588 1.698 3.066 3.34 6.625 5.968 10.896 7.61 2.19.876 4.38.712 6.242-.438 1.807-1.095 3.833-2.354 4.982-4.106 3.286-5.092 5.749-10.622 5.257-16.919-.165-1.807-.384-3.668-1.479-5.42-1.861.821-3.066 2.245-4.489 3.394-1.479 1.26-2.355 1.369-3.669.11-3.066-2.847-6.078-5.749-8.925-8.761-5.037-5.256-9.308-11.114-13.907-16.754-2.737-3.285-4.216-7.556-7.939-10.129-3.669-4.764-7.392-9.527-11.06-14.346-5.421-7.117-11.717-13.578-16.481-21.244-.547-.876-1.423-1.642-2.245-2.354-.547-.493-1.259-.821-1.971-1.04-2.026-.657-4.106-1.26-6.132-1.862-5.694-1.752-11.498-2.573-17.357-1.369-4.544.931-9.034 2.136-13.36 3.669-2.299.821-4.489 1.806-6.898 1.916-2.629.109-5.257-.055-7.83-.219-1.04-.055-2.135-.438-3.066-.931-4.052-2.19-7.337-5.147-9.199-9.417-1.423-3.176-.493-5.64 2.683-7.337 1.643-.876 3.231-1.807 4.873-2.628 4.928-2.574 9.582-5.64 14.783-7.666 2.41-.93 4.6-2.519 6.954-4.928Zm158.346 40.627c1.204.493 2.08-.274 2.847-.985 2.792-2.464 5.53-4.928 8.213-7.502 2.245-2.135 4.325-4.38 6.515-6.625.603-.657 1.205-1.369 1.807-2.026-.383-.876-.657-1.587-1.04-2.244-7.063-11.115-15.057-21.464-24.967-30.279-5.202-4.6-9.856-9.746-14.784-14.674l-.657-.657c-4.709-5.31-9.417-10.622-14.236-15.878-1.642-1.807-3.504-3.504-5.256-5.256-1.971-1.971-3.942-3.943-5.913-5.859-.876-.821-1.807-1.533-2.738-2.3-5.585 2.683-10.02 6.516-14.783 9.91-1.205.877-2.19 2.19-3.121 3.396-.493.657-.657 1.587-.931 2.354 2.081 1.04 4.052 1.643 5.585 2.792 2.628 2.08 5.147 4.435 7.446 6.9 3.997 4.27 7.775 8.76 11.717 13.14 1.862 2.08 3.724 4.106 5.75 6.023 2.354 2.245 4.927 4.216 7.227 6.46 3.614 3.56 7.227 7.173 10.622 11.006 2.847 3.23 5.366 6.789 7.994 10.239 4.928 6.57 9.691 13.195 12.1 21.189.165.383.438.602.603.876Zm-155.225 68.989a48.045 48.045 0 0 1-.109-3.231c-.11-2.244-1.15-3.723-3.395-4.38-1.752-.547-3.504-1.15-5.256-1.752-1.807-.657-3.231-.328-4.654 1.04-2.245 2.19-4.107 4.6-5.531 7.337-2.463 4.6-4.982 9.199-7.282 13.908-1.259 2.628-2.354 5.365-3.175 8.158-.493 1.752-.548 3.668-.493 5.475.055 2.135 1.205 3.887 3.121 4.818 2.08.986 4.271 1.807 6.625 1.752 2.792-.109 5.147-.876 6.625-3.449 1.205-2.135 2.683-4.107 3.833-6.297 2.299-4.544 4.325-9.198 6.734-13.688 1.588-2.902 2.3-6.023 2.957-9.691Zm-17.357-10.622a247.06 247.06 0 0 0-.876-6.352c-.438-2.737-2.409-4.216-4.818-5.146-1.533-.603-3.011-.493-4.326.602-1.204.986-2.354 2.026-3.558 3.011-2.191 1.862-4.928 3.176-5.804 6.242-.164.548-.822.876-1.205 1.369-.876 1.095-1.861 2.081-2.518 3.285-2.026 3.942-4.162 7.885-5.859 12.046-2.464 6.023-1.862 8.158 2.628 12.867.11.109.219.274.329.328 2.026 1.643 4.051 3.395 6.68 3.943 1.587.328 2.682-.11 3.504-1.534.821-1.478 1.697-3.011 2.135-4.599.876-3.504 2.683-6.57 4.545-9.582 2.518-4.106 5.092-8.103 7.61-12.155.822-1.259 1.533-2.573 1.533-4.325Zm29.786 29.347c.767-7.172.602-7.665-.657-10.786-.931-2.3-2.464-3.34-4.873-3.504-1.807-.11-3.231.328-4.435 1.861-5.092 6.68-8.542 14.181-11.279 22.121-1.04 3.066-1.588 6.187 0 9.362.493.986 0 2.409.931 3.45 2.08 2.409 4.435 4.161 7.829 4.271 3.176.109 5.421-.986 6.625-3.888.822-1.971 1.424-4.052 2.026-6.132.548-1.917 1.095-3.833 1.479-5.804.985-4.216 1.806-8.432 2.354-10.951Zm-72.657-26.938c-.055 1.697-.22 2.628-.11 3.559.274 3.011 1.26 5.694 3.778 7.665 1.588 1.205 3.45 1.424 5.311 1.041 1.643-.329 1.807-1.917 2.355-3.176 1.314-2.957 2.299-6.187 4.161-8.761 3.285-4.435 6.187-9.253 10.677-12.702.985-.767 1.697-1.752 1.807-3.066.602-6.187-4.162-9.418-8.761-9.801-1.15-.11-2.464.383-3.449 1.04-1.369.931-2.683 2.081-3.724 3.395-4.325 5.42-8.103 11.279-11.06 17.575-.657 1.205-.821 2.629-.985 3.231ZM311.9 50.623c-.164-2.52-1.697-4.216-3.066-6.023-4.819-6.352-9.911-12.593-13.086-20.314-2.355-.602-3.942-2.518-5.585-4.325-1.478-1.588-3.012-3.066-4.545-4.545-.383-.383-.93-.82-1.752.165 2.191 2.792 3.888 6.077 7.337 7.83 1.698.875 2.957 1.97 3.34 4.106.219 1.26 1.205 2.464 2.026 3.559 4.763 6.242 9.527 12.483 14.345 18.67.274.274.657.548.986.877Zm-28.417-14.62c5.311 8.159 11.608 14.674 17.521 21.464.055.11.493-.11.931-.22-.493-.82-.931-1.642-1.478-2.354a4899.364 4899.364 0 0 0-12.977-17.357c-.383-.492-.766-1.095-1.259-1.314-.657-.218-1.424-.109-2.738-.218Zm39.97 4.271c1.149 2.628 1.861 5.311 3.34 7.501 3.613 5.311 7.61 10.403 11.498 15.55.109.11.493.055.766.055.055-.11.165-.274.219-.383.055-.329.165-.712 0-.876-4.982-6.626-9.472-13.58-13.633-20.752-.219-.383-.657-.657-.986-.93-.219-.165-.547-.11-1.204-.165Zm-203.79 3.176c2.19-2.026 3.121-4.107 1.917-6.844-4.435-.11-4.435-.11-7.392 1.26 1.204 2.408 3.285 3.941 5.475 5.584Zm183.861 18.89c3.887 6.734 8.705 11.99 13.359 17.52.712-.875.219-1.423-.109-1.806a2814.392 2814.392 0 0 0-11.444-15.605c-.109-.164-.547-.055-1.806-.11Zm25.46 60.283c.219.657.274 1.204.547 1.478 1.752 1.424 4.983 1.205 6.68-.602 1.424-1.533.055-2.847-.712-4.107-.219-.328-.711-.547-1.204-.876-.657.383-1.424.657-1.971 1.095-1.095.986-2.19 2.026-3.34 3.012Zm-9.144-79.009c0-.274.11-.657-.055-.876-3.723-5.53-8.432-10.184-13.031-14.893a.426.426 0 0 0-.438-.11c-.11 0-.219.165-.493.439 3.888 4.928 7.83 9.91 11.772 14.838.383.438.931.766 1.479 1.04.164 0 .492-.328.766-.438Zm-66.963-10.02c-.274 2.026-.055 3.724 1.643 5.038 2.19-1.096 4.435-1.752 5.639-4.107-1.971-2.792-4.325-2.573-7.282-.93Zm82.787 68.003c-.657-3.558-2.683-7.117-7.447-13.742-.328-.439-.712-1.04-1.478-.603 1.15 4.052 5.42 11.115 8.925 14.345Zm.164-19.82c1.478 5.256 4.49 9.636 7.884 13.798.329.438.822 1.04 1.588.11-3.176-4.6-6.296-9.254-9.472-13.908Zm13.688 17.302c1.478-.712 1.15-1.643.602-2.41-1.861-2.846-3.777-5.639-5.694-8.431-.274-.438-.548-1.205-1.478-.603 2.026 3.943 3.887 7.94 6.57 11.444Zm-316.91 7.556c-1.478.164-1.807 1.259-2.026 2.245-.438 2.245 1.15 3.778 3.504 3.34 1.205-.219 1.807-1.26 1.314-2.355-.711-1.314-1.478-2.573-2.792-3.23Zm299.827-23.051c3.504 7.282 5.968 11.005 8.542 13.195-1.752-4.38-5.366-10.074-8.542-13.195Zm9.034 20.915c.274-.164.548-.383.822-.547-1.533-4.052-4.49-7.173-6.954-10.622-.164-.274-.657-.329-1.861-.876 3.011 4.544 5.53 8.322 7.993 12.045Zm-48.511-86.29c-1.642-3.23-2.518-4.162-5.639-5.585 1.095 3.12 2.19 4.216 5.639 5.585Zm58.75 76.216c-.657-4.545-3.011-8.377-5.694-10.294a411.367 411.367 0 0 1 5.694 10.294ZM82.596 42.026c-.055-.11-.11-.328-.274-.383-.11-.055-.329 0-.438.11a703.55 703.55 0 0 0-5.585 6.68c-.11.164.055.547.11.82 2.299-.93 2.518-1.15 6.186-7.227Zm258.981 38.656c-1.643-4.983-3.176-7.775-5.092-9.363 0 .548-.164 1.04.055 1.369 1.697 2.41 2.354 5.475 5.037 7.994ZM303.086 67.87c2.463 4.708 3.996 6.46 6.625 7.556-1.698-2.355-3.121-4.326-4.6-6.242-.273-.329-.711-.493-2.025-1.314Zm50.756 29.073c.383 1.643.766 2.793.876 3.943.164 1.204.054 2.409 1.314 3.121.985-2.464 1.095-2.683.821-3.888-.164-.712-.438-1.478-.931-2.026-.438-.438-1.15-.657-2.08-1.15Zm-35.207-43.747c-2.902-4.435-4.27-5.859-6.406-7.063 2.738 4.544 2.738 4.544 6.406 7.063Zm-247.592-26.5c4.708-3.724 4.873-3.888 5.694-6.57-2.519 1.149-3.121 1.806-5.694 6.57Zm203.516-3.122c-.164.22-.547.439-.547.658.109.711.219 1.533.602 2.08 1.807 2.628 2.464 3.176 4.654 4.216-.329-1.642-1.807-2.135-2.519-3.175-.93-1.15-1.478-2.52-2.19-3.779Zm56.834 16.207c1.424 3.833 3.614 6.79 6.351 8.432a545.416 545.416 0 0 0-5.201-7.61c-.219-.329-.657-.493-1.15-.822Zm-227.28-9.089c.219-.219.384-.438.603-.657-.712-.93-1.369-1.916-2.19-2.847-.165-.164-.986-.164-1.095.055-.165.274-.219.986 0 1.205.821.82 1.752 1.478 2.682 2.244Zm170.501-17.411c-1.588.657-3.23 1.314-4.435 3.668 2.464-.876 3.504-2.244 4.435-3.668Zm88.098 80.596c-.603 2.738-.603 2.738 1.204 4.162a115.986 115.986 0 0 0-1.204-4.162ZM98.2 25.546c1.095-.274 1.588-.712 1.15-1.37-.383-.601-1.04-1.04-1.697-1.423-.22-.164-.712.11-1.479.329.93.985 1.533 1.807 2.026 2.464Zm173.512 13.633c1.095 2.628 1.095 2.628 3.231 3.888-1.15-1.37-2.19-2.629-3.231-3.888ZM85.826 43.121c2.19.165 2.792-.657 3.23-1.588.11-.218 0-.602-.164-.82-.164-.165-.657-.22-.766-.11-.657.602-1.205 1.26-2.3 2.518ZM18.589 77.725c-.438.767-.93 1.479-1.314 2.245-.273.493-.328 1.095-.711 2.519 1.642-1.698 2.3-2.902 2.025-4.764Zm326.985-11.662c.328 2.409.328 2.409 3.066 5.147a186.072 186.072 0 0 0-3.066-5.147Zm-35.425-27.815c.657 2.629.657 2.629 3.121 3.943-1.314-1.643-2.19-2.793-3.121-3.943Zm-230.072-7.61c.657-.767 1.314-1.37 1.752-2.08.164-.275-.055-.767-.11-1.206-.383.055-.93-.054-1.095.165-.657.821-1.314 1.697-.547 3.12Zm236.368-8.651c-1.04-2.464-1.04-2.464-2.902-2.628.986.82 1.698 1.478 2.902 2.628Zm16.262 24.912-.657.329c.328.493.602 1.04.985 1.478.329.383.439 1.205 1.424.712-.602-.821-1.205-1.643-1.752-2.519Zm-26.774 83.28c.164 0 .273.054.383 0 .767-.438 1.314-1.643 1.04-2.245-.054-.11-.219-.219-.328-.219-.657 0-1.314 1.04-1.259 2.08 0 .11.109.274.164.384Zm36.958-83.225-.547.548c.492.602.985 1.204 1.533 1.861.164-.11.328-.274.492-.383-.492-.657-.985-1.314-1.478-2.026Zm16.755 53.22c.164-1.26.383-1.752.273-2.135-.055-.329-.493-.548-.712-.822-.164.383-.438.767-.438 1.095.055.384.384.767.877 1.862ZM93.163 18.428a5.849 5.849 0 0 1-.548.602l1.15 1.314c.055.055.383.11.438.055.11-.22.329-.657.22-.767-.384-.438-.822-.82-1.26-1.204ZM305.44 32.28c.164 2.245.767 2.902 2.081 2.902-.493-.712-.986-1.369-2.081-2.902ZM101.047 14.595c.548.602 1.15 1.26 1.807 2.026.383-1.478-.602-1.807-1.807-2.026Zm224.925 15.44c-.328 1.479.274 2.081 2.355 2.464-1.205-1.259-1.807-1.861-2.355-2.464ZM303.195 42.52c-.274-.383-.493-.712-.766-1.04 0 0-.274.219-.438.328.328.329.602.657.93.931 0 0 .165-.11.274-.219ZM268.92 24.396l-.493-.657c-.493.438-1.04.876-1.533 1.26.109.163.219.328.383.492.548-.383 1.095-.712 1.643-1.095Zm69.536 30.661-.657.329c.383.548.767 1.04 1.15 1.588.164-.11.328-.22.547-.329-.328-.547-.712-1.095-1.04-1.588Zm4.435 62.966c-.274-.273-.493-.602-.767-.876-.164.219-.492.493-.437.657.054.329.328.657.547.931.164-.219.383-.438.657-.712ZM30.963 45.093l.438.438c.439-.438.877-.822 1.26-1.26-.11-.164-.274-.274-.383-.438-.438.438-.876.821-1.314 1.26ZM352.09 73.015c.164-.876.054-1.697-1.041-1.478.329.548.712.986 1.041 1.478Zm-12.429-21.791-.657.493 1.149 1.478.493-.329a21.695 21.695 0 0 0-.985-1.642ZM305.44 77.56c0 .11-.109.328-.055.328.165.11.329.165.493.22-.055-.11-.055-.274-.109-.384-.055-.11-.22-.11-.329-.164ZM90.754 12.788c.054-.164.11-.274.11-.438-.275 0-.603-.164-.767-.055-.165.11-.11.493-.165.712.329-.054.548-.11.822-.219Zm-53.44 37.835c-.218.164-.547.219-.656.438-.055.164.11.438.164.657.274-.274.548-.548.767-.877-.055-.054-.165-.109-.274-.218Zm268.455 74.409c.054-.11.054-.274.109-.383-.274 0-.548-.165-.767-.055-.109.054-.109.438-.164.657.329-.055.548-.165.822-.219Zm15.768-67.401c-.164-.22-.273-.438-.492-.602 0 0-.165.11-.274.164.164.219.274.438.493.602 0 .055.164-.11.273-.164ZM83.143 25.108c-.11 0-.274.054-.383.054.11.22.164.493.328.712 0 .055.22-.055.384-.11l-.329-.656Zm12.32 2.463c-.22.11-.603.11-.658.274-.054.22.11.493.165.767.219-.11.602-.164.711-.329.11-.11-.109-.438-.218-.712Zm-5.64 17.686c-.11 0-.329 0-.383.055-.11.109-.165.273-.22.383.22 0 .439 0 .603-.055v-.383Zm-54.37-3.997c.11-.22.164-.438.274-.657-.11 0-.329 0-.383.054-.11.165-.165.439-.274.658.164-.055.274-.055.383-.055Zm308.478 16.535-.657-.328c0 .11-.055.273 0 .328.164.164.384.22.603.329 0-.11.054-.22.054-.329Zm-36.52-18.506c-.109-.11-.219-.22-.274-.329-.109.11-.219.274-.273.383.109.055.219.22.383.22 0 0 .109-.165.164-.274Zm-14.838 22.667c-.055-.219-.109-.492-.164-.711 0-.055-.219 0-.329 0 .055.219.11.492.165.711 0 .055.164 0 .328 0Zm57.874 46.431c0-.164.055-.274.055-.438-.11.109-.274.164-.384.328-.054.11.055.274.11.384.055-.055.164-.165.219-.274Zm-40.408-56.505c-.164-.22-.383-.438-.547-.602-.055 0-.219.11-.329.164l.493.657c.055 0 .274-.164.383-.22Zm20.204-8.104c-.055-.219-.055-.438-.109-.657-.055-.11-.219-.164-.329-.219-.055.22-.274.493-.219.548.164.164.438.219.657.328Zm-27.705-35.37c-.055.055-.219.164-.219.219 0 .11.11.219.164.329.11-.11.274-.22.384-.329a1.147 1.147 0 0 0-.329-.219Zm-22.558 6.68c.055-.11.164-.22.164-.383 0-.055-.219-.165-.274-.165-.109.055-.164.22-.219.329.11.11.219.164.329.219ZM102.964 35.292a1.197 1.197 0 0 0-.165-.274c-.109-.055-.219-.055-.383-.055.055.164.11.329.219.438 0 .055.219-.055.329-.11Zm-90.89 50.865-.165-.328c-.11.054-.273.219-.273.219.11.164.219.328.328.438.055-.11.055-.22.11-.329ZM96.94 12.515v.328c.164-.055.328-.055.492-.11-.054-.109-.109-.273-.164-.273-.11-.055-.219 0-.328.054Zm-7.5 13.468.164-.329c-.11-.055-.22-.164-.329-.164-.054 0-.164.219-.164.274.055.11.22.164.329.219Zm2.19-4.873c-.11.219-.165.383-.22.547.11 0 .22-.055.384-.055a1.623 1.623 0 0 1-.164-.492Zm249.564 39.038.054-.383-.328.055.274.329ZM46.13 33.54l-.274.274c.165.11.329.165.493.274.055-.11.164-.274.11-.383-.055-.055-.22-.11-.329-.164Zm21.463-18.177-.274-.055v.274l.274-.22Zm200.232 19.656v.328c.164-.054.328-.054.492-.11-.054-.109-.109-.218-.218-.273-.055-.055-.165.055-.274.055ZM247.949 57.96a1.12 1.12 0 0 1-.219.329l.493-.164a1.194 1.194 0 0 0-.274-.165ZM89.823 23.301c0 .11 0 .219.055.383.164-.055.383-.055.547-.11-.055-.109-.11-.273-.219-.273-.11-.055-.219 0-.383 0ZM358.222 75.59l-.11-.329-.164.274.274.055Zm-5.585-11.991.11.274.164-.274h-.274Zm-20.039 26.5-.11-.328-.164.274.274.054ZM96.612 35.456l-.383.11.329.164.054-.274Zm-43.419 29.84-.219-.055.055.274.164-.219Zm-3.45-14.947.274.055-.054-.274-.22.219Zm194.264 7.391.274.055-.055-.328-.219.273Zm12.977-28.854-.219-.165-.055.22.274-.055Zm77.311 78.625.109.383.165-.328-.274-.055Zm-.438 4.709.109.273.165-.273h-.274Zm17.849-11.225.329.055-.11-.383-.219.328Z" fill="#070A0B"/><path d="M60.256 102.473c-.383 2.957-1.533 5.366-4.49 6.461-2.901 1.095-6.46.219-8.486-1.971-3.395-3.669-3.833-7.72-1.205-11.334 1.205-1.697 2.847-2.847 4.928-3.12.876-.11 1.862-.11 2.738.163 3.34.877 6.79 6.188 6.515 9.801Zm-10.84 3.285c1.368.219 2.135.548 2.792.384 3.011-.767 5.147-4.381 4.106-7.228-.328-.93-1.204-1.752-1.97-2.464-.384-.328-1.26-.547-1.698-.383-.986.383-1.971.93-2.683 1.697-.657.657-1.643 1.479-.986 2.683 1.807.165 1.862-1.478 2.629-2.3.657-.711 1.806-.656 2.463 0 .877.822 1.095 2.246.22 2.848-1.753 1.259-2.738 3.066-4.874 4.763Zm259.747 3.998c.548-3.176 1.807-5.202 4.325-6.242 2.355-.985 4.49-.438 6.516 1.04 3.285 2.464 4.38 5.53 3.121 8.816-1.095 2.847-3.285 4.325-6.406 4.325-3.121.055-5.585-1.369-6.625-4.106-.548-1.314-.712-2.848-.931-3.833Zm4.983-1.259c-1.753 1.861-1.807 3.559-.712 5.311.821 1.314 2.026 1.478 3.34 1.149-.876-2.19-1.698-4.161-2.628-6.46Zm1.478-2.081c.657.821 1.314 1.424 1.752 2.19.438.712.657 1.533 1.04 2.464.657-.274 1.205-.493 1.698-.767.219-.109.328-.547.273-.821-.109-.547-.219-1.204-.492-1.642-.986-1.424-2.245-2.026-4.271-1.424Zm-175.648 97.186c3.504 1.643 6.078 4.271 10.02 3.231 2.026-2.19 3.012-5.037 3.45-8.158.164-.931.219-.931 2.135-1.314.055.602.219 1.204.109 1.806-.602 3.231-2.135 6.133-3.942 8.816-1.642 2.464-4.161 2.956-7.008 2.244-3.121-.711-4.764-2.518-4.764-6.625Zm-3.394-17.192c-.657 1.478-1.095 3.121-2.026 4.545-1.424 2.19-3.34 3.942-5.585 5.365-1.15.767-2.245.876-3.504.384-1.424-.603-2.902-1.205-3.614-2.683-.219-.493-.219-1.314.055-1.698.274-.383 1.095-.547 1.588-.438.547.11 1.095.493 1.588.876 2.026 1.643 3.34 1.095 4.873-.492 1.15-1.15 2.08-2.629 2.956-4.052.493-.767.658-1.752 1.205-2.464.274-.383.986-.548 1.533-.548.329-.054.548.603.931 1.205Zm28.471 33.782c-2.354.602-4.161.383-5.803-.547-.603-.329-1.15-1.041-1.314-1.698-.165-.602.273-1.314.437-2.135 1.424.712 2.519 1.424 3.778 1.862 1.315.438 2.519-.11 3.067-1.369.821-1.807 1.423-3.669 2.08-5.476 1.041-.273 1.588.384 1.424 1.15-.329 1.643-.767 3.285-1.424 4.764-.493 1.204-1.478 2.299-2.245 3.449Zm-45.664-48.127c.329 4.106-1.259 6.406-3.066 8.432-1.204 1.314-2.847 2.409-4.49 3.175-1.752.822-3.613.438-5.201-.876-.876-.712-.876-1.533-.383-2.464.438-.876 1.04-1.587 2.135-1.368.766.164 1.424.547 2.135.766 2.41.767 3.121.548 4.654-1.643.876-1.259 1.533-2.682 2.355-3.996.328-.438.766-.822 1.861-2.026Z" fill="#070A0B"/></svg>