<svg width="52" height="48" fill="none" xmlns="http://www.w3.org/2000/svg"><path d="M42.84 6.063c-7.775-6.93-19.632-7.844-28.69-3.126C4.856 7.776-1.275 18.054.226 28.608c1.713 12.08 15.6 18.32 26.48 18.59 5.098.146 9.615-1.116 13.97-3.732 4.34-2.606 7.128-6.26 9.017-10.959 3.598-8.955.291-20.08-6.852-26.444Zm6.77 18.823a89.143 89.143 0 0 1-6.842 1.148 32.69 32.69 0 0 0-.124-2.98 32.305 32.305 0 0 0-1.589-7.704 32.503 32.503 0 0 0 4.833-3.203c2.393 3.805 3.738 8.363 3.722 12.74Zm-37.517 1.402c-.125-3.546.275-6.686 1.376-9.79 3.218 1.245 6.66 1.956 10.185 2.434 1.355.187 2.73.239 4.111.187.27 2.663.478 5.331.618 8-.893.036-1.786.067-2.678.098-4.496.156-9.033.26-13.55.036a27.658 27.658 0 0 1-.062-.965Zm15.506-8.758a24.3 24.3 0 0 1-5.098-.348c-2.938-.524-5.783-1.152-8.456-2.16.327-.768.7-1.536 1.116-2.315 2.33-4.308 5.57-8.425 9.93-10.797A164.616 164.616 0 0 1 27.6 17.53ZM26.68 1.9c6.09 2.257 10.206 6.997 12.46 12.707-3.136 1.521-6.547 2.503-9.989 2.825a169.54 169.54 0 0 0-2.47-15.533Zm-.976 26.88c.92-.032 1.838-.068 2.757-.104.078 1.843.13 3.686.145 5.534-.472 0-.944 0-1.412.01-3.846.078-8.01.732-11.919 1.983-1.443-2.227-2.46-4.73-2.917-7.382 4.449.208 8.918.114 13.346-.041Zm1.496 7.003c.472-.01.944-.01 1.417-.01 0 3.218-.088 6.442-.275 9.665-4.823-1.11-9.142-3.992-12.117-7.885 3.624-1.111 7.46-1.703 10.975-1.77Zm-3.702 9.614c-4.807-.597-9.775-2.274-13.798-5.108a31.518 31.518 0 0 1 4.937-2.217 23.51 23.51 0 0 0 8.861 7.325Zm6.676-9.604c2.679.073 5.394.343 8.016.95-2.061 3.546-4.59 6.442-8.27 8.368.166-3.11.254-6.213.254-9.318Zm-.01-1.557c-.02-1.874-.068-3.748-.15-5.622 3.727-.167 7.433-.405 11.124-.82-.202 2.595-.851 5.014-2.175 7.537-2.866-.7-5.86-1.012-8.8-1.095Zm-.223-7.175a166.33 166.33 0 0 0-.623-8.036c3.556-.337 7.09-1.386 10.346-2.959.8 2.42 1.292 4.989 1.469 7.595.062.888.088 1.74.078 2.57-3.743.42-7.491.664-11.27.83Zm15.08-16.207a30.407 30.407 0 0 1-4.5 3.042C38.485 8.82 35.058 4.5 30.194 1.811c2.99.566 5.82 1.812 8.555 3.343 2.45 1.37 4.569 3.359 6.271 5.7ZM11.678 6.322c3.182-2.315 6.686-3.696 10.444-4.37-3.514 2.548-6.265 6.197-8.306 9.971a31.566 31.566 0 0 0-1.21 2.508c-2.008-.893-3.913-2.045-5.663-3.582 1.407-1.734 3.011-3.276 4.735-4.527Zm-5.68 5.768c1.859 1.609 3.889 2.85 6.038 3.815-1.272 3.556-1.708 7.18-1.464 11.213 0 .021.005.037.005.058-3.078-.208-6.141-.587-9.157-1.226-.161-4.874 1.671-9.811 4.578-13.86Zm-3.11 20.24a16.318 16.318 0 0 1-1.339-4.77c3.037.612 6.11.976 9.194 1.173.42 2.86 1.47 5.575 2.985 8-1.9.7-3.717 1.547-5.378 2.538-2.3-1.879-4.205-4.19-5.461-6.94Zm30.256 12.615c2.772-2.024 4.864-4.703 6.608-7.797 1.448.42 2.85.955 4.195 1.635-2.892 3.011-6.66 5.134-10.803 6.162ZM45 37.585a25.645 25.645 0 0 0-4.512-1.828c1.36-2.71 2.035-5.337 2.222-8.15 2.28-.291 4.553-.66 6.827-1.122a19.1 19.1 0 0 1-.307 2.186A20.408 20.408 0 0 1 45 37.584Z" fill="#070A0B"/><path d="M1.446 12.479A31.692 31.692 0 0 1 8.464 3.55c.56-.498-.265-1.324-.825-.825a32.595 32.595 0 0 0-7.2 9.167c-.354.665.654 1.257 1.007.587Zm.098-4.215a13.596 13.596 0 0 1 2.492-3.375c.535-.53-.29-1.355-.825-.825A14.474 14.474 0 0 0 .537 7.672c-.348.664.66 1.256 1.007.592ZM46.568 41.27c-2.16 2.523-4.833 4.418-7.948 5.565-.7.26-.394 1.386.312 1.127 3.307-1.22 6.172-3.188 8.467-5.867.477-.57-.343-1.401-.83-.825Zm-1.002 3.878c-.623.732-1.375 1.344-2.248 1.76-.68.322-.088 1.329.592 1.007.95-.452 1.807-1.142 2.487-1.942.478-.566-.343-1.396-.83-.825Z" fill="#FABF2B"/></svg>