<svg width="56" height="48" fill="none" xmlns="http://www.w3.org/2000/svg"><path d="M45.744 12.778c-.99-.131-2.082.115-3.104.312a105.706 105.706 0 0 0-3.453-7.59c-.786-1.556-1.71-4.026-3.228-5.059-2.104-1.426-4.48.935-5.803 2.383-5.627 6.162-10.758 12.67-18.292 16.658a1.167 1.167 0 0 0-.18.126c-2.125.65-4.24 1.316-6.349 2.016-1.355.453-3.207.754-4.327 1.754-1.923 1.71-.64 5.436.12 7.392.716 1.84 2.382 5.556 4.53 6.184.584.175 1.284.082 1.977-.093 1.273 2.645 2.437 5.366 3.907 7.906.945 1.64 1.907 3.82 4.12 3.087 2.31-.765 5.217-3.12 4.512-5.846-.355-1.377-1.611-2.404-2.393-3.524-.868-1.235-1.54-2.573-2.174-3.939.344-.11.683-.213 1.027-.328 4.327-.841 8.676-1.273 13.069-.787 3.912.432 7.73 1.465 11.572 2.284 1.89.404 5.496 1.896 6.796-.399 1.328-2.338-.426-6.714-1.027-9.042-.41-1.579-.869-3.152-1.355-4.72 1.06-.716 2.377-1.388 2.896-2.585.546-1.256 0-2.65-.53-3.808-.465-.989-1.115-2.218-2.311-2.382ZM4.412 33.452a14.464 14.464 0 0 1-1.568-2.83 14.24 14.24 0 0 1-.945-3.092c-.416-2.295.874-3.306 2.852-3.972a276.903 276.903 0 0 1 7.217-2.311 316.445 316.445 0 0 0 3.88 11.511 106.98 106.98 0 0 1-6.48 1.88c-2.039.513-3.574.737-4.956-1.186Zm12.872 6.425c.219.29.568.661.743.935 1.07 1.677 1.093 2.71-.322 4.267-.377.415-1.11.88-1.601 1.114-.48.23-.836.35-1.153.36.23-.387.415-.802.563-1.234.257-.748-.929-1.07-1.186-.328-.125.36-.29.7-.486 1.022-.055-.05-.104-.093-.158-.153a3.759 3.759 0 0 1-.328-.383c.01-.027.027-.049.033-.076.087-.262.256-.497.382-.743.153-.306.279-.617.393-.94.257-.748-.928-1.07-1.185-.328-.11.317-.262.607-.415.902a17.71 17.71 0 0 1-.465-.885c0-.006.006-.006.006-.011.284-.617.562-1.23.846-1.847.137-.3.088-.66-.218-.841-.262-.153-.705-.082-.841.218-.159.345-.317.689-.47 1.033-.11-.24-.224-.475-.334-.694l-.163-.344a.892.892 0 0 0 .125-.153c.273-.47.546-.945.82-1.415.399-.683-.667-1.306-1.06-.623-.17.295-.339.59-.514.88-.153-.328-.311-.65-.464-.978a.907.907 0 0 0 .125-.126c.246-.322.481-.65.71-.983.186-.274.05-.683-.218-.842-.306-.18-.655-.054-.841.219-.115.17-.24.333-.36.497l-.427-.901c.35-.115.677-.22.978-.296a96.467 96.467 0 0 0 4.622-1.3c.809 1.76 1.688 3.431 2.863 4.977Zm22.712-6.108c-3.535-.781-7.059-1.65-10.67-2.01-4.13-.41-8.223-.011-12.282.732a308.507 308.507 0 0 1-3.972-11.802c6.774-3.698 12.036-9.473 17.002-15.27.574-.672 1.486-1.956 2.503-2.814 2.928 4.387 4.84 9.85 6.763 14.692 2.202 5.556 4.032 11.593 5.087 17.51-1.508-.114-3.371-.808-4.431-1.038Zm6.797-.513c-.055.852-.498 1.278-1.137 1.458-1.07-6.135-2.977-12.38-5.283-18.139-1.945-4.851-3.819-10.26-6.758-14.642.535-.23 1.081-.273 1.606.027.694.4 1.29 1.99 1.66 2.656 1.705 3.108 3.131 6.376 4.437 9.665 1.563 3.928 2.95 7.938 4.032 12.025.541 2.06 1.585 4.808 1.443 6.95Zm.382-14.359c-.426.607-1.196 1.033-1.88 1.454a104.889 104.889 0 0 0-2.19-6.087c.486-.082.978-.158 1.47-.213 1.201-.126 1.66.219 2.223 1.328.53 1.06 1.153 2.415.377 3.518Z" fill="#070A0B"/><path d="M46.072 9.101c.01-1.169-.006-2.338.005-3.502.005-.792-1.224-.792-1.23 0-.01 1.17.006 2.338-.005 3.502-.005.792 1.224.792 1.23 0Zm5.004 2.366c.64-.705 1.279-1.404 1.923-2.109.53-.585-.333-1.453-.868-.869a668.18 668.18 0 0 1-1.924 2.11c-.535.578.334 1.453.87.868Zm4.213 4.021c-.913-.054-1.825-.049-2.738-.082-.792-.022-.792 1.208 0 1.23.913.027 1.83.021 2.738.081.792.05.786-1.18 0-1.229Zm-4.629 5.6c-.644-.464-1.256.601-.622 1.06.781.563 1.514 1.197 2.224 1.847.584.53 1.453-.333.868-.869a26.735 26.735 0 0 0-2.47-2.038ZM6.641 26.88c.732-.284.41-1.476-.328-1.186-.825.322-1.65.64-2.475.962-.726.284-.41 1.475.328 1.185.825-.322 1.65-.639 2.475-.961Zm.339.825c-.847.404-1.716.732-2.612 1-.754.223-.431 1.409.328 1.185 1-.295 1.967-.678 2.907-1.125.71-.34.087-1.4-.623-1.06Z" fill="#FABF2B"/></svg>