<svg width="49" height="48" fill="none" xmlns="http://www.w3.org/2000/svg"><path d="M44.463 2.527C41.775.02 39.23-.703 35.777.724c-3.055 1.262-5.44 4.025-7.849 6.22-3.621 3.304-7.116 6.757-10.552 10.257a399.044 399.044 0 0 0-9.763 10.324c-1.421 1.56-3.028 3.108-4.258 4.842a.78.78 0 0 0-.128.18c-.053.075-.08.149-.106.218-.848 1.707-1.198 3.791-1.617 5.61-.673 2.911-1.236 5.865-1.5 8.846-.054.567.545.837 1.007.769 4.65-.727 9.243-1.756 13.878-2.573 1.887-.334 2.71-1.633 4.03-3 2.211-2.287 4.412-4.588 6.618-6.884 4.094-4.274 8.188-8.543 12.35-12.748 3.431-3.468 8.278-7.228 9.917-12 1.198-3.533-.88-5.961-3.34-8.258ZM39.542 19.02c-1.904-1.574-3.352-3.41-5.064-5.223-1.798-1.909-3.728-3.685-5.664-5.457l1.06-.98a578.885 578.885 0 0 1 10.628 10.727c-.318.318-.637.626-.96.934Zm-4.269 4.142c-3.367-3.802-7.302-7.069-11.12-10.41.313-.302.63-.61.95-.912 4.056 2.975 7.492 6.894 11.03 10.452-.139.133-.271.27-.404.404-.154.153-.302.312-.456.466Zm-20.538 15.24h-.005c-1.512.09-3.028.09-4.545.139-.053-1.156-.043-2.996-.467-4.068 2.731-2.678 5.086-5.6 7.69-8.389 2.937-3.145 6.055-6.14 9.094-9.19 1.58 1.379 3.14 2.784 4.64 4.242-5.33 5.892-10.744 11.704-16.407 17.267ZM27.939 9.157c.281.26.562.514.843.774a22.709 22.709 0 0 1-1.792 1.851c-.334-.265-.679-.52-1.018-.774.652-.62 1.31-1.236 1.967-1.85Zm3.887 7.026a17.901 17.901 0 0 0 1.755-1.601l.059.058c.334.356.652.706.97 1.056a14.02 14.02 0 0 1-1.644 1.628l-1.14-1.14Zm-.848-.832c-.33-.318-.658-.642-.987-.955a51.962 51.962 0 0 1 1.681-1.739 68.3 68.3 0 0 1 1.077 1.076 19.706 19.706 0 0 1-1.771 1.618Zm-1.872-1.76c-.393-.356-.79-.7-1.193-1.045a22.435 22.435 0 0 0 1.744-1.809c.387.36.774.721 1.156 1.082a67.159 67.159 0 0 0-1.707 1.771Zm4.693 4.597a13.853 13.853 0 0 0 1.612-1.59c.35.391.705.779 1.066 1.16a27.54 27.54 0 0 0-1.522 1.623c-.387-.403-.774-.795-1.156-1.193Zm-19.78 4.794a331.888 331.888 0 0 1 8.994-9.127c.859.754 1.723 1.501 2.588 2.254-3.018 3.034-6.115 6.003-9.037 9.132-2.603 2.79-4.958 5.711-7.689 8.39-.461-.134-1.055-.155-1.39-.213a55.389 55.389 0 0 0-2.635-.408c2.572-3.617 6.136-6.83 9.169-10.028ZM7.952 45.248c-1.251-1.618-3.26-3.622-5.196-5.181.09-.424.18-.843.28-1.267.345-1.485.616-3.214 1.215-4.688 1.267.111 3.25.138 4.364.705-.43-.143-.005.795.07 1.405.121.976.238 1.952.35 2.922.036.313.243.61.593.594 1.124-.042 2.28.027 3.4-.074 1.219-.111 1.176-.355 1.31.843a88.58 88.58 0 0 1 .286 3.282c-.138.048-.276.09-.42.128-2.052.525-4.146.949-6.252 1.33Zm17.134-11.55c-1.893 1.973-3.78 3.945-5.674 5.913-1.15 1.198-2.248 2.683-3.632 3.6-.09-1.262-.197-2.529-.388-3.775 5.733-5.621 11.206-11.497 16.593-17.457a53.06 53.06 0 0 1 2.18 2.322 1265.514 1265.514 0 0 0-9.079 9.397Zm11.9-12.244a153.78 153.78 0 0 1-1.204-1.22 29.47 29.47 0 0 1 1.527-1.628c.43.424.886.838 1.369 1.24-.573.542-1.14 1.077-1.692 1.608Zm8.856-10.129c-1.024 2.042-2.546 3.892-4.221 5.637a557.36 557.36 0 0 0-10.574-10.67c.08-.068.153-.143.233-.217 2.402-2.169 5.409-5.414 9.03-4.412 1.677.461 3.05 1.925 4.18 3.176 1.845 2.026 2.715 3.755 1.352 6.486Z" fill="#070A0B"/><path d="M36.047 4.829c-.143-.753-1.288-.435-1.15.318a23.64 23.64 0 0 0 .827 3.187c.244.727 1.395.414 1.15-.318a23.64 23.64 0 0 1-.827-3.187Zm2.021-.414c-.244-.726-1.395-.413-1.151.318.297.897.6 1.798.896 2.694.244.727 1.395.414 1.15-.318-.296-.896-.593-1.792-.895-2.694Z" fill="#FABF2B"/></svg>